<svg xmlns="http://www.w3.org/2000/svg" viewBox="0 0 71.54 71.54"><defs><style>.cls-1,.cls-2{fill:none;stroke:#000;}.cls-1{stroke-linecap:round;stroke-linejoin:round;}.cls-2{stroke-miterlimit:10;}</style></defs><g id="Notes"><path class="cls-1" d="M34.28,52.61l-5.92-4.3a57.67,57.67,0,0,1-5.06-4.18c-3.74-3.46-8-8.32-8-15.24s4.88-12.28,10.9-12.28a10.4,10.4,0,0,1,8.1,4.06,10.37,10.37,0,0,1,8.09-4.06c6,0,10.91,5.5,10.91,12.28s-4.29,11.78-8,15.24a60,60,0,0,1-5,4.18Z"/><path class="cls-2" d="M34.28,20.67S32.55,29.87,17.16,22"/><path class="cls-2" d="M17.16,36.51s12-5.4,9.79-19.9"/><path class="cls-2" d="M20.93,23.69c8.15,14.58,7.85,24.42,7.85,24.42l5.5-5.42L27.16,39"/><path class="cls-2" d="M34.28,20.67S36,29.87,51.39,22"/><path class="cls-2" d="M51.39,36.51s-12-5.4-9.79-19.9"/><path class="cls-2" d="M47.62,23.69c-8.15,14.58-7.84,24.42-7.84,24.42l-5.5-5.42L41.39,39"/><path class="cls-2" d="M47.28,33.65l-.5,8.46s-11,1-12.5,10.5a35.23,35.23,0,0,1,18.5-22.5c-7.54-5.2-6-12-6-12L34.28,24l-12.5-5.89s1.53,6.8-6,12a35.27,35.27,0,0,1,18.5,22.5c-1.5-9.5-12.5-10.5-12.5-10.5l-.5-8.46"/></g></svg>