<svg xmlns="http://www.w3.org/2000/svg" viewBox="0 0 71.54 71.54"><defs><style>.cls-1{fill:none;stroke:#000;stroke-miterlimit:10;}</style></defs><g id="Notes"><path class="cls-1" d="M18.76,28.2a10.48,10.48,0,0,1,3,7l4-4V25l-.32-.32A4.47,4.47,0,0,1,22.26,26H18.81c0,.33,0,.66,0,1Z"/><path class="cls-1" d="M43.6,18a10.44,10.44,0,0,1-7,3l4,4h6.15l.32-.32a4.46,4.46,0,0,1-1.32-3.18V18.1a8.22,8.22,0,0,0-1-.06Z"/><path class="cls-1" d="M47.08,46.36,46.76,46H40.61l-4,4a10.48,10.48,0,0,1,7,3h1.17c.33,0,.66,0,1,0V49.54A4.47,4.47,0,0,1,47.08,46.36Z"/><path class="cls-1" d="M53.76,42.88a10.4,10.4,0,0,1-3-7l-4,4V46l.32.32A4.5,4.5,0,0,1,50.26,45H53.7a7.93,7.93,0,0,0,.06-1Z"/><path class="cls-1" d="M28.92,53a10.43,10.43,0,0,1,7-3l-4-4H25.76l-.32.32a4.52,4.52,0,0,1,1.32,3.18V53c.32,0,.65,0,1,0Z"/><path class="cls-1" d="M47.08,24.72l-.32.32v6.15l4,4a10.44,10.44,0,0,1,3-7V27a8.22,8.22,0,0,0-.06-1H50.26A4.46,4.46,0,0,1,47.08,24.72Z"/><path class="cls-1" d="M25.44,46.36l.32-.32V39.89l-4-4a10.43,10.43,0,0,1-3,7v1.18c0,.33,0,.66,0,1h3.45A4.52,4.52,0,0,1,25.44,46.36Z"/><path class="cls-1" d="M25.44,24.72l.32.32h6.15l4-4a10.4,10.4,0,0,1-7-3H27.74a7.93,7.93,0,0,0-1,.06v3.44A4.5,4.5,0,0,1,25.44,24.72Z"/><line class="cls-1" x1="40.61" y1="25.04" x2="43.68" y2="28.12"/><line class="cls-1" x1="31.91" y1="46.04" x2="28.83" y2="42.97"/><line class="cls-1" x1="43.68" y1="42.97" x2="40.61" y2="46.04"/><line class="cls-1" x1="28.83" y1="28.12" x2="31.91" y2="25.04"/><line class="cls-1" x1="25.76" y1="31.19" x2="28.83" y2="28.12"/><line class="cls-1" x1="28.83" y1="42.97" x2="25.76" y2="39.89"/><line class="cls-1" x1="43.68" y1="28.12" x2="46.76" y2="31.19"/><line class="cls-1" x1="46.76" y1="39.89" x2="43.68" y2="42.97"/><path class="cls-1" d="M50.26,26H53.7a9,9,0,0,0-2.57-5.37l-4.05,4A4.46,4.46,0,0,0,50.26,26Z"/><path class="cls-1" d="M47.08,24.72l4.05-4a9,9,0,0,0-5.37-2.57v3.44A4.46,4.46,0,0,0,47.08,24.72Z"/><path class="cls-1" d="M25.44,46.36l-4.05,4A9,9,0,0,0,26.76,53V49.54A4.52,4.52,0,0,0,25.44,46.36Z"/><path class="cls-1" d="M22.26,45H18.81a9,9,0,0,0,2.58,5.37l4.05-4A4.52,4.52,0,0,0,22.26,45Z"/><path class="cls-1" d="M47.08,46.36l4.05,4A9,9,0,0,0,53.7,45H50.26A4.5,4.5,0,0,0,47.08,46.36Z"/><path class="cls-1" d="M45.76,49.54V53a9,9,0,0,0,5.37-2.58l-4.05-4A4.47,4.47,0,0,0,45.76,49.54Z"/><path class="cls-1" d="M26.76,21.54V18.1a9,9,0,0,0-5.37,2.57l4.05,4A4.5,4.5,0,0,0,26.76,21.54Z"/><path class="cls-1" d="M25.44,24.72l-4.05-4A9,9,0,0,0,18.81,26h3.45A4.47,4.47,0,0,0,25.44,24.72Z"/><path class="cls-1" d="M35.92,50.06c.23,0,.45,0,.67,0l4-4h-8.7Z"/><path class="cls-1" d="M50.77,35.21l-4-4v8.7l4-4Z"/><path class="cls-1" d="M21.74,35.21c0,.22,0,.44,0,.67l4,4v-8.7Z"/><path class="cls-1" d="M36.59,21h-.67l-4,4h8.7Z"/><path class="cls-1" d="M21.74,35.21a10.48,10.48,0,0,0-3-7v5l2.35,2.35-2.35,2.35v5a10.43,10.43,0,0,0,3-7l-.33-.34Z"/><path class="cls-1" d="M21.74,35.21l-.33.33.33.34C21.75,35.65,21.75,35.43,21.74,35.21Z"/><polygon class="cls-1" points="18.76 33.19 18.76 37.89 21.11 35.54 18.76 33.19"/><path class="cls-1" d="M53.76,33.19v-5a10.44,10.44,0,0,0-3,7l.34.33-.34.34a10.4,10.4,0,0,0,3,7v-5l-2.35-2.35Z"/><path class="cls-1" d="M50.77,35.21v.67l.34-.34Z"/><polygon class="cls-1" points="51.41 35.54 53.76 37.89 53.76 33.19 51.41 35.54"/><path class="cls-1" d="M35.92,50.06a10.43,10.43,0,0,0-7,3h5l2.35-2.35L38.61,53h5a10.48,10.48,0,0,0-7-3l-.33.33Z"/><path class="cls-1" d="M35.92,50.06l.34.33.33-.33C36.37,50.05,36.15,50.05,35.92,50.06Z"/><polygon class="cls-1" points="33.91 53.04 38.61 53.04 36.26 50.69 33.91 53.04"/><path class="cls-1" d="M36.59,21a10.44,10.44,0,0,0,7-3h-5l-2.35,2.35L33.91,18h-5a10.4,10.4,0,0,0,7,3l.34-.34Z"/><path class="cls-1" d="M36.59,21l-.33-.34-.34.34Z"/><polygon class="cls-1" points="38.61 18.04 33.91 18.04 36.26 20.39 38.61 18.04"/></g></svg>