<svg xmlns="http://www.w3.org/2000/svg" viewBox="0 0 71.54 71.54"><defs><style>.cls-1{fill:none;stroke:#000;stroke-linejoin:round;}</style></defs><g id="Notes"><polygon class="cls-1" points="25.05 17.16 50.15 17.16 55.05 22.23 55.05 47.2 50.15 52.11 25.05 52.11 20.05 47.11 20.05 22.16 25.05 17.16"/><polygon class="cls-1" points="27.02 19.91 48.16 19.91 52.3 24.18 52.3 45.23 48.16 49.36 27.02 49.36 22.81 45.15 22.81 24.12 27.02 19.91"/><polygon class="cls-1" points="28.45 21.91 46.72 21.91 50.3 25.6 50.3 43.79 46.72 47.36 28.45 47.36 24.81 43.72 24.81 25.55 28.45 21.91"/><polygon class="cls-1" points="30.76 25.13 44.4 25.13 47.06 27.89 47.06 41.47 44.4 44.13 30.76 44.13 28.04 41.41 28.04 27.85 30.76 25.13"/><polygon class="cls-1" points="25.05 17.16 30.76 25.13 28.04 27.85 20.05 22.16 25.05 17.16"/><polygon class="cls-1" points="44.4 25.13 50.15 17.16 55.05 22.23 47.06 27.89 44.4 25.13"/><polygon class="cls-1" points="47.06 41.47 55.05 47.2 50.15 52.11 44.4 44.13 47.06 41.47"/><polygon class="cls-1" points="30.76 44.13 25.05 52.11 20.05 47.11 28.04 41.41 30.76 44.13"/></g></svg>