<svg xmlns="http://www.w3.org/2000/svg" viewBox="0 0 71.54 71.54"><defs><style>.cls-1{fill:none;stroke:#000;stroke-miterlimit:10;}</style></defs><g id="Notes"><path class="cls-1" d="M31.15,20.27l.41-.58a24.12,24.12,0,0,1-1.69-4.28h0a26.24,26.24,0,0,1,.92,4.86Z"/><path class="cls-1" d="M45.88,28.75l.41.57a14.7,14.7,0,0,1,2.85-2.23,11.93,11.93,0,0,1-3.26,1.17Z"/><path class="cls-1" d="M39.78,49.24l-.42.58a23.86,23.86,0,0,1,1.7,4.28h0a28.18,28.18,0,0,1-.92-4.86Z"/><path class="cls-1" d="M24.64,40.18a14.53,14.53,0,0,1-2.85,2.23,11.9,11.9,0,0,1,3.26-1.16v-.5Z"/><path class="cls-1" d="M45.88,40.75v.82a11.87,11.87,0,0,1,3.38,1.36h0a14.81,14.81,0,0,1-3.12-2.53Z"/><path class="cls-1" d="M49.37,27l-.23.11a14.7,14.7,0,0,0-2.85,2.23l3.9,5.43-4,5.65a14.81,14.81,0,0,0,3.12,2.53A28.36,28.36,0,0,0,49.37,27Z"/><path class="cls-1" d="M45.88,49.24H40.14a28.18,28.18,0,0,0,.92,4.86c3.68-2.07,6.65-6.1,8.2-11.17a11.87,11.87,0,0,0-3.38-1.36Z"/><path class="cls-1" d="M40.36,20.27a26.54,26.54,0,0,1,.88-4.38,23.5,23.5,0,0,1-1.72,4l.26.36Z"/><path class="cls-1" d="M35.46,14.27l4.06,5.64a23.5,23.5,0,0,0,1.72-4c0-.11.06-.22.1-.34a11.56,11.56,0,0,0-5.88-1.66,11.36,11.36,0,0,0-5.59,1.52,24.12,24.12,0,0,0,1.69,4.28Z"/><path class="cls-1" d="M41.45,15.23c0,.11-.08.21-.11.32h0C41.38,15.45,41.41,15.34,41.45,15.23Z"/><path class="cls-1" d="M45.88,20.27v8a11.93,11.93,0,0,0,3.26-1.17l.23-.13c-1.49-5.12-4.38-9.23-8-11.4,0,.11-.08.22-.11.33a26.54,26.54,0,0,0-.88,4.38Z"/><path class="cls-1" d="M41.34,15.55c0,.12-.07.23-.1.34,0-.11.07-.22.11-.33Z"/><path class="cls-1" d="M49.62,26.83l-.25.13v0Z"/><path class="cls-1" d="M49.37,27v0l-.23.13Z"/><path class="cls-1" d="M30.57,49.24a27.61,27.61,0,0,1-.88,4.38,23.58,23.58,0,0,1,1.71-4l-.25-.35Z"/><path class="cls-1" d="M35.46,55.24,31.4,49.59a23.58,23.58,0,0,0-1.71,4c0,.11-.07.22-.1.33a11.17,11.17,0,0,0,11.47.15,23.86,23.86,0,0,0-1.7-4.28Z"/><path class="cls-1" d="M30.57,49.24H25.05v-8a11.9,11.9,0,0,0-3.26,1.16l-.23.14c1.48,5.11,4.37,9.23,8,11.39,0-.11.07-.21.11-.32A27.61,27.61,0,0,0,30.57,49.24Z"/><path class="cls-1" d="M29.48,54.27c0-.1.07-.21.11-.32h0C29.54,54.05,29.51,54.16,29.48,54.27Z"/><path class="cls-1" d="M29.58,53.94h0c0-.11.07-.22.1-.33C29.65,53.73,29.61,53.83,29.58,53.94Z"/><path class="cls-1" d="M25.05,28.75v-.81a12,12,0,0,1-3.39-1.37h0a14.55,14.55,0,0,1,3.13,2.53Z"/><path class="cls-1" d="M21.66,26.57a12,12,0,0,0,3.39,1.37V20.27h5.73a26.24,26.24,0,0,0-.92-4.86C26.18,17.47,23.22,21.5,21.66,26.57Z"/><path class="cls-1" d="M24.64,40.18l-3.91-5.43,4.06-5.64a14.55,14.55,0,0,0-3.13-2.53,28.36,28.36,0,0,0-.11,16l.24-.12A14.53,14.53,0,0,0,24.64,40.18Z"/><path class="cls-1" d="M21.31,42.67l.25-.12v0Z"/><path class="cls-1" d="M21.55,42.53v0l.23-.14Z"/><path class="cls-1" d="M31.56,19.69l-.41.58h.72C31.76,20.08,31.66,19.88,31.56,19.69Z"/><path class="cls-1" d="M45.88,29.75c.13-.15.27-.29.41-.43l-.41-.57Z"/><path class="cls-1" d="M39.36,49.82l.42-.58h-.72Z"/><path class="cls-1" d="M25.05,39.76l-.41.42.41.57Z"/><path class="cls-1" d="M45.88,40.75l.26-.35-.26-.27Z"/><path class="cls-1" d="M39.78,20.27l-.26-.36-.18.36Z"/><path class="cls-1" d="M31.15,49.24l.25.35a3.9,3.9,0,0,1,.19-.35Z"/><path class="cls-1" d="M25.05,28.75l-.26.36.26.26Z"/><path class="cls-1" d="M31.15,20.27h-.37c0,.14,0,.29,0,.43Z"/><path class="cls-1" d="M45.88,28.75v-.49l-.31.06Z"/><path class="cls-1" d="M39.78,49.24h.36c0-.15,0-.29,0-.44Z"/><path class="cls-1" d="M25.05,40.75v.5a2.84,2.84,0,0,1,.31-.06Z"/><path class="cls-1" d="M45.88,41.57v-.82l-.51.71Z"/><path class="cls-1" d="M40.36,20.27h-.58l.5.7C40.3,20.73,40.33,20.5,40.36,20.27Z"/><path class="cls-1" d="M30.64,48.54c0,.23,0,.47-.07.7h.58Z"/><path class="cls-1" d="M25.56,28l-.51-.1v.81Z"/><path class="cls-1" d="M30.48,41.57a13,13,0,0,1,4.92,2.9,13,13,0,0,1,5-2.79,25.57,25.57,0,0,1,2.09-6.85,26,26,0,0,1-2-6.89A13.26,13.26,0,0,1,35.52,25a12.92,12.92,0,0,1-5,2.78,26,26,0,0,1-2.08,6.86A25.56,25.56,0,0,1,30.48,41.57Z"/><path class="cls-1" d="M30.56,27.82a12.92,12.92,0,0,0,5-2.78,17.16,17.16,0,0,1-2.29-2.6,19.29,19.29,0,0,1-1.36-2.17h-.72l-.32.43A28.74,28.74,0,0,1,30.56,27.82Z"/><path class="cls-1" d="M40.44,27.94a26,26,0,0,0,2,6.89,21.6,21.6,0,0,1,1.87-3.2,16.39,16.39,0,0,1,1.56-1.88v-1l-.31-.43A11.05,11.05,0,0,1,40.44,27.94Z"/><path class="cls-1" d="M40.36,41.68a13,13,0,0,0-5,2.79,17.68,17.68,0,0,1,2.3,2.59,21,21,0,0,1,1.36,2.18h.72l.31-.44A29.25,29.25,0,0,1,40.36,41.68Z"/><path class="cls-1" d="M30.48,41.57a25.56,25.56,0,0,0-2-6.89,22.12,22.12,0,0,1-1.87,3.2,19.7,19.7,0,0,1-1.56,1.88v1l.31.44A10.75,10.75,0,0,1,30.48,41.57Z"/><path class="cls-1" d="M42.45,34.83a25.57,25.57,0,0,0-2.09,6.85,10.71,10.71,0,0,1,2.94-.42,11,11,0,0,1,2.07.2l.51-.71v-.62A20.08,20.08,0,0,1,42.45,34.83Z"/><path class="cls-1" d="M40.13,23.83c0-1,.06-1.92.15-2.86l-.5-.7h-.44A18.43,18.43,0,0,1,35.52,25a13.26,13.26,0,0,0,4.92,2.9A30.56,30.56,0,0,1,40.13,23.83Z"/><path class="cls-1" d="M30.79,45.67c0,1-.06,1.93-.15,2.87l.51.7h.44a18.2,18.2,0,0,1,3.81-4.77,13,13,0,0,0-4.92-2.9A27.36,27.36,0,0,1,30.79,45.67Z"/><path class="cls-1" d="M28.48,34.68a26,26,0,0,0,2.08-6.86,11.12,11.12,0,0,1-2.94.43A10.82,10.82,0,0,1,25.56,28l-.51.71v.62A20.3,20.3,0,0,1,28.48,34.68Z"/></g></svg>