<svg id="Layer_1" data-name="Layer 1" xmlns="http://www.w3.org/2000/svg" viewBox="0 0 255.42 183.04"><title>favicon</title><path d="M225.85,68.91a2.38,2.38,0,0,0-.82-.62L170.37,43a2.38,2.38,0,0,0-1.08-.44l-41.1-6a3.05,3.05,0,0,0-.74,0L86.65,42.8A2.19,2.19,0,0,0,86,43h0L31.55,68.29a2.41,2.41,0,0,0-.83.62L1.18,103.12a2.46,2.46,0,0,0-.17,3s.08.09.11.14h0l15.15,19h0c.09.12.89.82.89.82L126.7,219a2.47,2.47,0,0,0,3.18,0l109.76-93s.56-.51.66-.63h0l15.15-19h0c0-.05.08-.09.11-.14a2.47,2.47,0,0,0-.17-3Zm-3.38,3.62,23.14,26.79-33.91-12L189.05,59.28l-4.8-4.48ZM202.73,84.2,174,74.06l11.8-10.57ZM88.13,47.56l39.71-6.1,40,5.85L182.5,59.78l-13.95,12.5-39.72,6.1-40-5.85L74.17,60.06Zm35.05,96.2L70.72,132.51l33.36-15.73ZM91.8,78l32.64,4.77-19,26.05Zm32.61,71.11L105.5,172.55l-33.85-34.8Zm-16.48-35.37,20.36-27.88,20.36,27.88-20.36,28.76Zm25.47,30.07,19.1-27,33.36,15.73Zm51.53-6-33.85,34.8-18.91-23.49Zm-33.77-29L132.23,82.84l32.59-5ZM82.89,74l-29,10.24L70.74,63.61ZM34.11,72.53,73.05,54.44s-4.44,4-4.52,4.11h0L44.88,87.36,11,99.32Zm-27,33.37L38.85,94.72,18.23,119.86ZM45.6,94.26l14.28,35.93-37.21-8Zm-18.31,34,34,7.29.84,22.26ZM49.58,90.93,86.41,78l15.26,34.52L65,129.76Zm17.67,71.18-.86-22.69,37.29,38.32,15.92,28.74Zm61,49.88-19.66-35.48,19.66-24.4L148,176.51Zm61-49.88L137,206.48l15.93-28.74,37.29-38.32Zm-34.42-49.64L170.17,78l36.82,13-15.42,38.83Zm39.52,45.33.83-22.26,34-7.29Zm2.27-27.61L211,94.26l22.92,28Zm41.64-10.33L217.73,94.72l31.72,11.18Zm0,0" transform="translate(-0.58 -36.51)"/></svg>