<svg width="16" height="12" viewBox="0 0 16 12" fill="none" xmlns="http://www.w3.org/2000/svg">
<path d="M10.9037 6.23736H12.1333L14.8157 8.15488L14.4891 6.23736H15.0202C15.0824 6.23771 15.1441 6.22572 15.2016 6.20209C15.2591 6.17846 15.3113 6.14365 15.3553 6.09968C15.3993 6.05571 15.4341 6.00345 15.4577 5.94594C15.4814 5.88842 15.4933 5.82679 15.493 5.76461V1.47275C15.4933 1.41057 15.4814 1.34894 15.4577 1.29142C15.4341 1.23391 15.3993 1.18165 15.3553 1.13769C15.3113 1.09372 15.2591 1.05891 15.2016 1.03528C15.1441 1.01164 15.0824 0.999655 15.0202 1.00001H6.05673C5.93135 1.00001 5.8111 1.04981 5.72245 1.13847C5.63379 1.22713 5.58398 1.34737 5.58398 1.47275V3.29201" stroke="black" stroke-width="0.5" stroke-miterlimit="10"/>
<path d="M5.58401 5.7646V3.29199H1.47274C1.34736 3.29199 1.22712 3.3418 1.13846 3.43046C1.04981 3.51911 1 3.63936 1 3.76473V8.0566C1 8.18198 1.04981 8.30222 1.13846 8.39088C1.22712 8.47954 1.34736 8.52934 1.47274 8.52934H2.00391L1.67193 10.4469L4.35435 8.52934H10.4309C10.4931 8.5297 10.5548 8.51771 10.6123 8.49408C10.6698 8.47044 10.722 8.43563 10.766 8.39167C10.81 8.3477 10.8448 8.29544 10.8684 8.23793C10.8921 8.18041 10.904 8.11878 10.9037 8.0566V6.23734H6.05675C5.99467 6.23734 5.9332 6.22511 5.87584 6.20135C5.81849 6.1776 5.76637 6.14277 5.72247 6.09887C5.67857 6.05498 5.64375 6.00286 5.62 5.94551C5.59624 5.88815 5.58401 5.82668 5.58401 5.7646V5.7646Z" stroke="black" stroke-width="0.5" stroke-miterlimit="10"/>
<path d="M5.58398 3.29199V5.7646C5.58398 5.82668 5.59621 5.88815 5.61997 5.94551C5.64373 6.00286 5.67855 6.05498 5.72245 6.09887C5.76635 6.14277 5.81846 6.1776 5.87582 6.20135C5.93317 6.22511 5.99465 6.23734 6.05673 6.23734H10.9037" stroke="black" stroke-width="0.5" stroke-miterlimit="10"/>
</svg>
