<svg width="17" height="7" viewBox="0 0 17 7" fill="none" xmlns="http://www.w3.org/2000/svg">
<path d="M4.37507 1.66904L4.60193 1.56399C4.561 1.47561 4.47247 1.41904 4.37507 1.41904C4.27767 1.41904 4.18914 1.47561 4.14822 1.56399L4.37507 1.66904ZM4.90382 2.81087L4.67697 2.91592C4.71207 2.99173 4.78273 3.045 4.86528 3.05788L4.90382 2.81087ZM6.08507 2.99516L6.2653 3.16842C6.32991 3.10121 6.35176 3.00363 6.32197 2.91529C6.29219 2.82695 6.21572 2.76252 6.12361 2.74815L6.08507 2.99516ZM5.23007 3.88459L5.04984 3.71133C4.9954 3.76796 4.97075 3.84689 4.98327 3.92444L5.23007 3.88459ZM5.43257 5.13859L5.3103 5.35665C5.39399 5.40357 5.49714 5.39847 5.57578 5.34351C5.65442 5.28856 5.69467 5.19345 5.67938 5.09874L5.43257 5.13859ZM4.37507 4.54564L4.49734 4.32758C4.42127 4.28493 4.32848 4.285 4.25247 4.32777L4.37507 4.54564ZM3.32132 5.13859L3.07441 5.09946C3.0594 5.19415 3.09987 5.28909 3.17857 5.34383C3.25728 5.39857 3.36037 5.40348 3.44392 5.35647L3.32132 5.13859ZM3.52007 3.88459L3.76699 3.92372C3.77922 3.84658 3.75469 3.76815 3.70068 3.71173L3.52007 3.88459ZM2.66882 2.99516L2.63017 2.74817C2.53818 2.76257 2.46181 2.82689 2.43199 2.91509C2.40217 3.00329 2.42384 3.10076 2.48821 3.16802L2.66882 2.99516ZM3.84632 2.81087L3.88498 3.05786C3.96748 3.04495 4.03809 2.99169 4.07318 2.91592L3.84632 2.81087ZM8.50007 1.66904L8.72693 1.56399C8.686 1.47561 8.59747 1.41904 8.50007 1.41904C8.40267 1.41904 8.31414 1.47561 8.27322 1.56399L8.50007 1.66904ZM9.02882 2.81087L8.80197 2.91592C8.83707 2.99173 8.90773 3.045 8.99028 3.05788L9.02882 2.81087ZM10.2101 2.99516L10.3903 3.16842C10.4549 3.10121 10.4768 3.00363 10.447 2.91529C10.4172 2.82695 10.3407 2.76252 10.2486 2.74815L10.2101 2.99516ZM9.35507 3.88459L9.17484 3.71133C9.1204 3.76796 9.09575 3.84689 9.10827 3.92444L9.35507 3.88459ZM9.55757 5.13859L9.4353 5.35665C9.51899 5.40357 9.62214 5.39847 9.70078 5.34351C9.77942 5.28856 9.81967 5.19345 9.80438 5.09874L9.55757 5.13859ZM8.50007 4.54564L8.62234 4.32758C8.54627 4.28493 8.45348 4.285 8.37747 4.32777L8.50007 4.54564ZM7.44632 5.13859L7.19941 5.09946C7.1844 5.19415 7.22487 5.28909 7.30357 5.34383C7.38228 5.39857 7.48537 5.40348 7.56892 5.35647L7.44632 5.13859ZM7.64507 3.88459L7.89199 3.92372C7.90422 3.84658 7.87969 3.76815 7.82568 3.71173L7.64507 3.88459ZM6.79382 2.99516L6.75517 2.74817C6.66318 2.76257 6.58681 2.82689 6.55699 2.91509C6.52717 3.00329 6.54884 3.10076 6.61321 3.16802L6.79382 2.99516ZM7.97132 2.81087L8.00998 3.05786C8.09248 3.04495 8.16309 2.99169 8.19818 2.91592L7.97132 2.81087ZM12.6251 1.66904L12.8519 1.56399C12.811 1.47561 12.7225 1.41904 12.6251 1.41904C12.5277 1.41904 12.4391 1.47561 12.3982 1.56399L12.6251 1.66904ZM13.1538 2.81087L12.927 2.91592C12.9621 2.99173 13.0327 3.045 13.1153 3.05788L13.1538 2.81087ZM14.3351 2.99516L14.5153 3.16842C14.5799 3.10121 14.6018 3.00363 14.572 2.91529C14.5422 2.82695 14.4657 2.76252 14.3736 2.74815L14.3351 2.99516ZM13.4801 3.88459L13.2998 3.71133C13.2454 3.76796 13.2207 3.84689 13.2333 3.92444L13.4801 3.88459ZM13.6826 5.13859L13.5603 5.35665C13.644 5.40357 13.7471 5.39847 13.8258 5.34351C13.9044 5.28856 13.9447 5.19345 13.9294 5.09874L13.6826 5.13859ZM12.6251 4.54564L12.7473 4.32758C12.6713 4.28493 12.5785 4.285 12.5025 4.32777L12.6251 4.54564ZM11.5713 5.13859L11.3244 5.09946C11.3094 5.19415 11.3499 5.28909 11.4286 5.34383C11.5073 5.39857 11.6104 5.40348 11.6939 5.35647L11.5713 5.13859ZM11.7701 3.88459L12.017 3.92372C12.0292 3.84658 12.0047 3.76815 11.9507 3.71173L11.7701 3.88459ZM10.9188 2.99516L10.8802 2.74817C10.7882 2.76257 10.7118 2.82689 10.682 2.91509C10.6522 3.00329 10.6738 3.10076 10.7382 3.16802L10.9188 2.99516ZM12.0963 2.81087L12.135 3.05786C12.2175 3.04495 12.2881 2.99169 12.3232 2.91592L12.0963 2.81087ZM1 1V0.75C0.861929 0.75 0.75 0.861929 0.75 1H1ZM16 1H16.25C16.25 0.861929 16.1381 0.75 16 0.75V1ZM16 6V6.25C16.1381 6.25 16.25 6.13807 16.25 6H16ZM1 6H0.75C0.75 6.13807 0.861929 6.25 1 6.25V6ZM4.14822 1.77409L4.67697 2.91592L5.13068 2.70582L4.60193 1.56399L4.14822 1.77409ZM4.86528 3.05788L6.04654 3.24217L6.12361 2.74815L4.94236 2.56386L4.86528 3.05788ZM5.90484 2.82191L5.04984 3.71133L5.4103 4.05784L6.2653 3.16842L5.90484 2.82191ZM4.98327 3.92444L5.18577 5.17845L5.67938 5.09874L5.47688 3.84473L4.98327 3.92444ZM5.55484 4.92053L4.49734 4.32758L4.2528 4.7637L5.3103 5.35665L5.55484 4.92053ZM4.25247 4.32777L3.19872 4.92072L3.44392 5.35647L4.49767 4.76352L4.25247 4.32777ZM3.56824 5.17773L3.76699 3.92372L3.27316 3.84545L3.07441 5.09946L3.56824 5.17773ZM3.70068 3.71173L2.84943 2.8223L2.48821 3.16802L3.33946 4.05744L3.70068 3.71173ZM2.70748 3.24215L3.88498 3.05786L3.80767 2.56387L2.63017 2.74817L2.70748 3.24215ZM4.07318 2.91592L4.60193 1.77409L4.14822 1.56399L3.61947 2.70582L4.07318 2.91592ZM8.27322 1.77409L8.80197 2.91592L9.25568 2.70582L8.72693 1.56399L8.27322 1.77409ZM8.99028 3.05788L10.1715 3.24217L10.2486 2.74815L9.06736 2.56386L8.99028 3.05788ZM10.0298 2.82191L9.17484 3.71133L9.5353 4.05784L10.3903 3.16842L10.0298 2.82191ZM9.10827 3.92444L9.31077 5.17845L9.80438 5.09874L9.60188 3.84473L9.10827 3.92444ZM9.67984 4.92053L8.62234 4.32758L8.3778 4.7637L9.4353 5.35665L9.67984 4.92053ZM8.37747 4.32777L7.32372 4.92072L7.56892 5.35647L8.62267 4.76352L8.37747 4.32777ZM7.69324 5.17773L7.89199 3.92372L7.39816 3.84545L7.19941 5.09946L7.69324 5.17773ZM7.82568 3.71173L6.97443 2.8223L6.61321 3.16802L7.46446 4.05744L7.82568 3.71173ZM6.83248 3.24215L8.00998 3.05786L7.93267 2.56387L6.75517 2.74817L6.83248 3.24215ZM8.19818 2.91592L8.72693 1.77409L8.27322 1.56399L7.74447 2.70582L8.19818 2.91592ZM12.3982 1.77409L12.927 2.91592L13.3807 2.70582L12.8519 1.56399L12.3982 1.77409ZM13.1153 3.05788L14.2965 3.24217L14.3736 2.74815L13.1924 2.56386L13.1153 3.05788ZM14.1548 2.82191L13.2998 3.71133L13.6603 4.05784L14.5153 3.16842L14.1548 2.82191ZM13.2333 3.92444L13.4358 5.17845L13.9294 5.09874L13.7269 3.84473L13.2333 3.92444ZM13.8048 4.92053L12.7473 4.32758L12.5028 4.7637L13.5603 5.35665L13.8048 4.92053ZM12.5025 4.32777L11.4487 4.92072L11.6939 5.35647L12.7477 4.76352L12.5025 4.32777ZM11.8182 5.17773L12.017 3.92372L11.5232 3.84545L11.3244 5.09946L11.8182 5.17773ZM11.9507 3.71173L11.0994 2.8223L10.7382 3.16802L11.5895 4.05744L11.9507 3.71173ZM10.9575 3.24215L12.135 3.05786L12.0577 2.56387L10.8802 2.74817L10.9575 3.24215ZM12.3232 2.91592L12.8519 1.77409L12.3982 1.56399L11.8695 2.70582L12.3232 2.91592ZM1 1.25H16V0.75H1V1.25ZM15.75 1V6H16.25V1H15.75ZM16 5.75H1V6.25H16V5.75ZM1.25 6V1H0.75V6H1.25Z" fill="black"/>
</svg>
