<svg width="16" height="17" viewBox="0 0 16 17" fill="none" xmlns="http://www.w3.org/2000/svg">
<path d="M11.4974 4.08537C11.4692 3.25754 11.1205 2.47305 10.5249 1.89741C9.9293 1.32177 9.13339 1 8.30508 1C7.47678 1 6.68086 1.32177 6.08527 1.89741C5.48969 2.47305 5.141 3.25754 5.11279 4.08537" stroke="black" stroke-width="0.5" stroke-miterlimit="10"/>
<path d="M5.15755 6.33789H5.10938C5.19011 7.12542 5.5601 7.85501 6.14774 8.38548C6.73538 8.91595 7.49889 9.2096 8.29055 9.2096C9.0822 9.2096 9.84572 8.91595 10.4334 8.38548C11.021 7.85501 11.391 7.12542 11.4717 6.33789H11.4087" stroke="black" stroke-width="0.5" stroke-miterlimit="10"/>
<path d="M5.1097 4.18131C5.10786 4.15169 5.10786 4.12199 5.1097 4.09238C4.99965 4.07012 4.88626 4.07012 4.7762 4.09238C4.66039 4.11086 4.54935 4.15198 4.44942 4.21338C4.34949 4.27478 4.26264 4.35527 4.19382 4.45024C4.12501 4.54521 4.07557 4.6528 4.04833 4.76688C4.0211 4.88096 4.01661 4.99928 4.0351 5.1151L4.12033 5.61534C4.15608 5.84347 4.27951 6.04862 4.46433 6.18706C4.64914 6.3255 4.88072 6.38628 5.1097 6.35644C5.09789 6.2469 5.0917 6.13682 5.09117 6.02665" stroke="black" stroke-width="0.5" stroke-miterlimit="10"/>
<path d="M11.5016 6.00843C11.5073 6.11952 11.5073 6.23083 11.5016 6.34193C11.7221 6.35775 11.9407 6.29048 12.1141 6.15333C12.2876 6.01619 12.4035 5.8191 12.439 5.60083L12.5206 5.10799C12.5396 4.99212 12.5354 4.87363 12.5084 4.75936C12.4814 4.6451 12.432 4.53731 12.3631 4.44223C12.2942 4.34715 12.2071 4.26665 12.107 4.20539C12.0068 4.14412 11.8955 4.1033 11.7795 4.08528C11.6851 4.06858 11.5885 4.06858 11.4941 4.08528C11.4941 4.11863 11.4941 4.14827 11.4941 4.18162" stroke="black" stroke-width="0.5" stroke-miterlimit="10"/>
<path d="M11.4088 9.358L9.75981 13.3192L9.12987 11.4924L9.83762 10.5919L9.12987 9.95829H7.84777L7.14372 10.5919L7.84777 11.4775L7.21783 13.3044L5.54665 9.2876C4.31481 9.50422 3.19342 10.1338 2.36704 11.0726C1.54066 12.0115 1.05853 13.2037 1 14.4531C3.32311 15.5243 5.85282 16.0733 8.411 16.0613C10.8904 16.075 13.3444 15.5622 15.6108 14.5568C15.5782 13.3492 15.1491 12.1858 14.3897 11.2462C13.6303 10.3066 12.5827 9.64311 11.4088 9.358V9.358Z" stroke="black" stroke-width="0.5" stroke-miterlimit="10"/>
<path d="M5.54688 9.2876L7.21806 13.3192L7.84799 11.4924L7.14395 10.6068L7.84799 9.97312H8.16666H8.81513H9.13009L9.83785 10.6068L9.13009 11.4924L9.76003 13.3192L11.4053 9.358" stroke="black" stroke-width="0.5" stroke-miterlimit="10"/>
</svg>
