<svg xmlns="http://www.w3.org/2000/svg" viewBox="0 0 71.54 71.54"><defs><style>.cls-1{fill:none;stroke:#000;stroke-linecap:round;stroke-linejoin:round;}</style></defs><g id="Notes"><polygon class="cls-1" points="25.39 36.67 26.8 39.52 29.95 39.98 27.67 42.2 28.21 45.33 25.39 43.85 22.58 45.33 23.11 42.2 20.84 39.98 23.98 39.52 25.39 36.67"/><polygon class="cls-1" points="36.39 36.67 37.8 39.52 40.95 39.98 38.67 42.2 39.21 45.33 36.39 43.85 33.58 45.33 34.11 42.2 31.84 39.98 34.98 39.52 36.39 36.67"/><polygon class="cls-1" points="47.39 36.67 48.8 39.52 51.95 39.98 49.67 42.2 50.21 45.33 47.39 43.85 44.58 45.33 45.11 42.2 42.84 39.98 45.98 39.52 47.39 36.67"/><rect class="cls-1" x="16.39" y="35" width="40" height="12.48"/></g></svg>