<svg xmlns="http://www.w3.org/2000/svg" viewBox="0 0 71.54 71.54"><defs><style>.cls-1{fill:none;stroke:#000;stroke-miterlimit:10;}</style></defs><g id="Notes"><path class="cls-1" d="M43.24,29.44a8.62,8.62,0,0,0-17.23,0"/><path class="cls-1" d="M26.13,35.52H26a8.63,8.63,0,0,0,17.17,0H43"/><path class="cls-1" d="M26,29.7a1.94,1.94,0,0,1,0-.24,2.27,2.27,0,0,0-.9,0,2.41,2.41,0,0,0-2,2.76l.23,1.35a2.39,2.39,0,0,0,2.67,2,8.69,8.69,0,0,1-.05-.89"/><path class="cls-1" d="M43.25,34.63a8.77,8.77,0,0,1,0,.9,2.39,2.39,0,0,0,2.53-2L46,32.2a2.4,2.4,0,0,0-2-2.76,2.21,2.21,0,0,0-.77,0c0,.09,0,.17,0,.26"/><path class="cls-1" d="M43,43.67,38.55,54.36l-1.7-4.93L38.76,47l-1.91-1.71H33.39L31.49,47l1.9,2.39-1.7,4.93L27.18,43.48A14.86,14.86,0,0,0,14.91,57.42a47.23,47.23,0,0,0,20,4.34A47.27,47.27,0,0,0,54.34,57.7,14.85,14.85,0,0,0,43,43.67Z"/><polyline class="cls-1" points="27.18 43.48 31.69 54.36 33.39 49.43 31.49 47.04 33.39 45.33 34.25 45.33 36 45.33 36.85 45.33 38.76 47.04 36.85 49.43 38.55 54.36 42.99 43.67"/></g></svg>