<!-- Generator: Adobe Illustrator 24.0.1, SVG Export Plug-In  -->
<svg version="1.1" xmlns="http://www.w3.org/2000/svg" xmlns:xlink="http://www.w3.org/1999/xlink" x="0px" y="0px" width="47px"
	 height="29.4px" viewBox="0 0 47 29.4" style="enable-background:new 0 0 47 29.4;" xml:space="preserve">
<style type="text/css">
	.st0{fill:#F9F9F9;}
	.st1{fill:#FFFFFF;}
	.st2{fill:#0073A5;}
</style>
<defs>
</defs>
<g>
	<path class="st0" d="M47,27.8c0,0.9-0.7,1.6-1.6,1.6H1.6c-0.9,0-1.6-0.7-1.6-1.6V1.6C0,0.7,0.7,0,1.6,0h43.9C46.3,0,47,0.7,47,1.6
		V27.8z"/>
	<g>
		<path class="st1" d="M14.6,14v-0.5L14.4,14h-1.9l-0.2-0.5V14H8.5l-0.4-1H7.4l-0.5,1H5v-3.1l1.4-3.1h2.6l0.4,0.9V7.8h3.2l0.7,1.5
			l0.7-1.5h10.2c0,0,0.5,0,0.9,0.2l0-0.2h2.6v0.3c0,0,0.5-0.3,1.1-0.3c0.7,0,4.5,0,4.5,0l0.4,0.9V7.8h2.9l0.5,0.9V7.8h2.8V14h-2.9
			l-0.7-1.1V14H33l-0.5-1.1h-0.7L31.4,14h-2.2c0,0-0.8,0-1.4-0.4c0,0.2,0,0.4,0,0.4h-4.3c0,0,0-1.2,0-1.4c0-0.2-0.2-0.2-0.2-0.2
			h-0.2V14H14.6z"/>
		<path class="st1" d="M12.5,15.4h5.6l0.8,0.9l0.8-0.9h4.3c0,0,0.4,0,0.8,0.2v-0.2c0,0,3.4,0,3.9,0c0.5,0,0.9,0.2,0.9,0.2v-0.2h5
			v0.2c0,0,0.4-0.2,0.8-0.2c0.5,0,3.2,0,3.2,0v0.2c0,0,0.4-0.2,0.8-0.2c0.4,0,2.5,0,2.5,0v5.9c0,0-0.3,0.4-1,0.4h-3.3v-0.2
			c0,0-0.3,0.2-0.8,0.2c-0.5,0-8.9,0-8.9,0s0-1.4,0-1.5c0-0.1-0.1-0.2-0.2-0.2h-0.1v1.7h-2.8v-1.7c0,0-0.3,0.2-0.8,0.2
			c-0.5,0-1,0-1,0v1.5h-3.4l-0.8-0.9L18,21.6h-5.5V15.4z"/>
		<polygon class="st2" points="30.2,16.3 33.7,16.3 33.7,17.2 31.3,17.2 31.3,18.1 33.7,18.1 33.7,18.9 31.3,18.9 31.3,19.8 
			33.7,19.8 33.7,20.7 30.2,20.7 		"/>
		<path class="st2" d="M40.6,18c1.3,0.1,1.4,0.7,1.4,1.4c0,0.8-0.7,1.3-1.4,1.3h-2.3v-0.9h1.8c0.3,0,0.7,0,0.7-0.4
			c0-0.2-0.1-0.3-0.4-0.4c-0.1,0-0.7,0-0.7-0.1c-1.2,0-1.5-0.6-1.5-1.4c0-0.8,0.6-1.3,1.3-1.3h2.3v0.9h-1.7c-0.4,0-0.8,0-0.8,0.4
			c0,0.3,0.2,0.3,0.5,0.3C39.9,18,40.5,18,40.6,18z"/>
		<path class="st2" d="M36.5,18c1.3,0.1,1.4,0.7,1.4,1.4c0,0.8-0.7,1.3-1.4,1.3h-2.3v-0.9h1.8c0.3,0,0.7,0,0.7-0.4
			c0-0.2-0.1-0.3-0.4-0.4c-0.1,0-0.7,0-0.7-0.1c-1.2,0-1.5-0.6-1.5-1.4c0-0.8,0.6-1.3,1.3-1.3h2.3v0.9h-1.7c-0.4,0-0.8,0-0.8,0.4
			c0,0.3,0.2,0.3,0.5,0.3C35.8,18,36.4,18,36.5,18z"/>
		<path class="st2" d="M23.7,16.3h-3.8l-1.2,1.4l-1.2-1.4h-4.3v4.4h4.1l1.3-1.5l1.3,1.5H22v-1.5h1.5c0.6,0,1.6,0,1.6-1.6
			C25,16.6,24.2,16.3,23.7,16.3z M16.7,19.8h-2.5v-0.9h2.4v-0.8h-2.4v-0.8l2.6,0l1.1,1.2L16.7,19.8z M20.9,20.3l-1.6-1.8l1.6-1.7
			V20.3z M23.3,18.3H22v-1.1h1.4c0.5,0,0.6,0.3,0.6,0.5C23.9,18.1,23.8,18.3,23.3,18.3z"/>
		<path class="st2" d="M28.9,18.7c0.6-0.3,0.7-0.7,0.7-1.2c0-0.9-0.8-1.2-1.3-1.2h-2.8v4.4h1.1v-1.6H28c0.4,0,0.5,0.4,0.5,0.7l0,0.8
			h1.1l0-0.9C29.6,19.1,29.4,18.8,28.9,18.7z M28,18.2h-1.3v-1H28c0.5,0,0.6,0.3,0.6,0.5C28.6,18.1,28.4,18.2,28,18.2z"/>
		<rect x="26" y="8.7" class="st2" width="1.1" height="4.4"/>
		<polygon class="st2" points="17.1,8.7 20.7,8.7 20.7,9.6 18.2,9.6 18.2,10.5 20.6,10.5 20.6,11.3 18.2,11.3 18.2,12.2 20.7,12.2 
			20.7,13.1 17.1,13.1 		"/>
		<path class="st2" d="M24.7,11.1c0.6-0.3,0.7-0.7,0.7-1.2c0-0.9-0.8-1.2-1.3-1.2h-2.8v4.4h1.1v-1.6h1.4c0.4,0,0.5,0.4,0.5,0.7
			l0,0.8h1.1l0-0.9C25.4,11.5,25.2,11.2,24.7,11.1z M23.7,10.6h-1.3v-1h1.4c0.5,0,0.6,0.3,0.6,0.5C24.3,10.4,24.2,10.6,23.7,10.6z"
			/>
		<path class="st2" d="M14.6,8.7l-1.3,3l-1.3-3h-1.7v4.2L8.4,8.7H7L5,13.1h1.1l0.4-1h2.2l0.4,1h2.2V9.8l1.4,3.3h1l1.5-3.2v3.2h1.1
			V8.7H14.6z M7,11.2l0.6-1.5l0.7,1.5H7z"/>
		<path class="st2" d="M38.2,8.7v3l-1.8-3h-1.6v4.1L33,8.7h-1.4L30,12.1c0,0-0.6,0-0.7,0c-0.3-0.1-0.7-0.2-0.7-1v-0.3
			c0-1,0.6-1.1,1.3-1.1h0.7v-1h-1.4c-0.5,0-1.6,0.4-1.6,2.2c0,1.2,0.5,2.2,1.7,2.2h1.4l0.4-1h2.2l0.4,1h2.1V9.9l1.9,3.2h1.5V8.7
			H38.2z M31.6,11.2l0.6-1.5l0.7,1.5H31.6z"/>
	</g>
</g>
</svg>
