<!-- Generator: Adobe Illustrator 24.0.1, SVG Export Plug-In  -->
<svg version="1.1" xmlns="http://www.w3.org/2000/svg" xmlns:xlink="http://www.w3.org/1999/xlink" x="0px" y="0px" width="47px"
	 height="29.4px" viewBox="0 0 47 29.4" style="enable-background:new 0 0 47 29.4;" xml:space="preserve">
<style type="text/css">
	.st0{fill:#F9F9F9;}
	.st1{fill-rule:evenodd;clip-rule:evenodd;fill:#FBB231;}
	.st2{fill-rule:evenodd;clip-rule:evenodd;fill:#EC1C2E;}
	.st3{fill-rule:evenodd;clip-rule:evenodd;fill:#FFFFFF;}
	.st4{fill:none;stroke:#FFFFFF;stroke-width:8.101392e-02;stroke-miterlimit:2.6131;}
</style>
<defs>
</defs>
<g>
	<path class="st0" d="M47,27.8c0,0.9-0.7,1.6-1.6,1.6H1.6c-0.9,0-1.6-0.7-1.6-1.6V1.6C0,0.7,0.7,0,1.6,0h43.9C46.3,0,47,0.7,47,1.6
		V27.8z"/>
	<g>
		<polygon class="st1" points="29.2,23.1 29.6,23.1 30,23.1 30.5,23 30.9,23 31.3,22.9 31.7,22.8 32.1,22.6 32.5,22.5 32.8,22.3 
			33.2,22.1 33.6,21.9 33.9,21.7 34.2,21.5 34.5,21.2 34.9,20.9 35.1,20.7 35.4,20.4 35.7,20.1 35.9,19.7 36.2,19.4 36.4,19.1 
			36.6,18.7 36.8,18.4 37,18 37.1,17.6 37.2,17.2 37.4,16.8 37.5,16.4 37.5,16 37.6,15.6 37.6,15.1 37.6,14.7 37.6,14.3 37.6,13.8 
			37.5,13.4 37.5,13 37.4,12.6 37.2,12.2 37.1,11.8 37,11.4 36.8,11 36.6,10.7 36.4,10.3 36.2,10 35.9,9.6 35.7,9.3 35.4,9 
			35.1,8.7 34.9,8.5 34.5,8.2 34.2,7.9 33.9,7.7 33.6,7.5 33.2,7.3 32.8,7.1 32.5,6.9 32.1,6.8 31.7,6.6 31.3,6.5 30.9,6.4 
			30.5,6.4 30,6.3 29.6,6.3 29.2,6.3 28.7,6.3 28.3,6.3 27.9,6.4 27.5,6.4 27.1,6.5 26.7,6.6 26.3,6.8 25.9,6.9 25.5,7.1 25.2,7.3 
			24.8,7.5 24.5,7.7 24.1,7.9 23.8,8.2 23.5,8.5 23.2,8.7 22.9,9 22.7,9.3 22.4,9.6 22.2,10 22,10.3 21.8,10.7 21.6,11 21.4,11.4 
			21.3,11.8 21.1,12.2 21,12.6 20.9,13 20.8,13.4 20.8,13.8 20.8,14.3 20.7,14.7 20.8,15.1 20.8,15.6 20.8,16 20.9,16.4 21,16.8 
			21.1,17.2 21.3,17.6 21.4,18 21.6,18.4 21.8,18.7 22,19.1 22.2,19.4 22.4,19.7 22.7,20.1 22.9,20.4 23.2,20.7 23.5,20.9 
			23.8,21.2 24.1,21.5 24.5,21.7 24.8,21.9 25.2,22.1 25.5,22.3 25.9,22.5 26.3,22.6 26.7,22.8 27.1,22.9 27.5,23 27.9,23 
			28.3,23.1 28.7,23.1 29.2,23.1 29.2,23.1 		"/>
		<polygon class="st2" points="17.9,23.1 18.3,23.1 18.7,23.1 19.2,23 19.6,23 20,22.9 20.4,22.8 20.8,22.6 21.2,22.5 21.5,22.3 
			21.9,22.1 22.2,21.9 22.6,21.7 22.9,21.5 23.2,21.2 23.5,20.9 23.8,20.7 24.1,20.4 24.4,20.1 24.6,19.7 24.9,19.4 25.1,19.1 
			25.3,18.7 25.5,18.4 25.6,18 25.8,17.6 25.9,17.2 26,16.8 26.1,16.4 26.2,16 26.3,15.6 26.3,15.1 26.3,14.7 26.3,14.3 26.3,13.8 
			26.2,13.4 26.1,13 26,12.6 25.9,12.2 25.8,11.8 25.6,11.4 25.5,11 25.3,10.7 25.1,10.3 24.9,10 24.6,9.6 24.4,9.3 24.1,9 
			23.8,8.7 23.5,8.5 23.2,8.2 22.9,7.9 22.6,7.7 22.2,7.5 21.9,7.3 21.5,7.1 21.2,6.9 20.8,6.8 20.4,6.6 20,6.5 19.6,6.4 19.2,6.4 
			18.7,6.3 18.3,6.3 17.9,6.3 17.4,6.3 17,6.3 16.6,6.4 16.2,6.4 15.8,6.5 15.4,6.6 15,6.8 14.6,6.9 14.2,7.1 13.8,7.3 13.5,7.5 
			13.1,7.7 12.8,7.9 12.5,8.2 12.2,8.5 11.9,8.7 11.6,9 11.4,9.3 11.1,9.6 10.9,10 10.6,10.3 10.4,10.7 10.3,11 10.1,11.4 9.9,11.8 
			9.8,12.2 9.7,12.6 9.6,13 9.5,13.4 9.5,13.8 9.4,14.3 9.4,14.7 9.4,15.1 9.5,15.6 9.5,16 9.6,16.4 9.7,16.8 9.8,17.2 9.9,17.6 
			10.1,18 10.3,18.4 10.4,18.7 10.6,19.1 10.9,19.4 11.1,19.7 11.4,20.1 11.6,20.4 11.9,20.7 12.2,20.9 12.5,21.2 12.8,21.5 
			13.1,21.7 13.5,21.9 13.8,22.1 14.2,22.3 14.6,22.5 15,22.6 15.4,22.8 15.8,22.9 16.2,23 16.6,23 17,23.1 17.4,23.1 17.9,23.1 
			17.9,23.1 		"/>
		<polygon class="st1" points="22.5,9.5 27,9.5 27,9 22.9,9 22.5,9.5 22.5,9.5 		"/>
		<polygon class="st1" points="21.9,10.5 27,10.5 27,10.1 22.1,10.1 21.9,10.5 21.9,10.5 		"/>
		<polygon class="st1" points="21.4,11.5 27,11.5 27,11.1 21.6,11.1 21.4,11.5 21.4,11.5 		"/>
		<polygon class="st1" points="21,12.6 27,12.6 27,12.1 21.2,12.1 21,12.6 21,12.6 		"/>
		<polygon class="st1" points="21.2,17.5 27,17.5 27,17 21.1,17 21.2,17.5 21.2,17.5 		"/>
		<polygon class="st1" points="21.6,18.5 27,18.5 27,18 21.4,18 21.6,18.5 21.6,18.5 		"/>
		<polygon class="st1" points="22.2,19.5 27,19.5 27,19.1 22,19.1 22.2,19.5 22.2,19.5 		"/>
		<polygon class="st1" points="23.1,20.5 27,20.5 27,20.1 22.7,20.1 23.1,20.5 23.1,20.5 		"/>
		<polygon class="st1" points="20.8,13.6 27,13.6 27,13.1 20.9,13.1 20.8,13.6 20.8,13.6 		"/>
		<polygon class="st1" points="24.6,16.5 27,16.5 27,16 24.7,16 24.6,16.5 24.6,16.5 		"/>
		<polygon class="st1" points="24.8,15.4 27,15.4 27,15 24.9,15 24.8,15.4 24.8,15.4 		"/>
		<polygon class="st1" points="20.7,15 21.3,15 21.3,15.4 20.7,15.4 20.7,15 20.7,15 		"/>
		<polygon class="st3" points="19.5,14.4 19.5,14.4 19.4,14.4 19.4,14.4 19.4,14.4 19.3,14.4 19.3,14.4 19.2,14.4 19.2,14.4 
			19.2,14.4 19.1,14.4 19.1,14.4 19,14.4 19,14.4 18.9,14.4 18.8,14.4 18.7,14.4 18.7,14.4 18.6,14.4 18.6,14.4 18.5,14.4 
			18.5,14.5 18.5,14.5 18.4,14.5 18.4,14.5 18.4,14.6 18.4,14.6 18.4,14.6 18.4,14.7 18.4,14.7 18.4,14.7 18.4,14.8 18.4,14.8 
			18.5,14.9 18.6,14.9 18.6,14.9 18.7,15 18.8,15 18.9,15 19,15.1 19.1,15.1 19.2,15.2 19.3,15.2 19.3,15.3 19.4,15.4 19.4,15.5 
			19.5,15.6 19.5,15.8 19.5,15.9 19.4,16.1 19.4,16.2 19.4,16.3 19.3,16.4 19.2,16.5 19.2,16.6 19.1,16.6 19,16.7 18.9,16.7 
			18.8,16.7 18.7,16.8 18.6,16.8 18.5,16.8 18.4,16.8 18.3,16.8 18.2,16.8 18.1,16.8 18,16.8 17.9,16.8 17.8,16.8 17.7,16.8 
			17.7,16.8 17.6,16.8 17.5,16.8 17.5,16.8 17.4,16.8 17.4,16.8 17.3,16.8 17.3,16.8 17.2,16.7 17.2,16.7 17.1,16.7 17.2,16.1 
			17.3,16.1 17.3,16.1 17.3,16.1 17.4,16.1 17.4,16.1 17.5,16.1 17.6,16.1 17.6,16.2 17.7,16.2 17.8,16.2 17.9,16.2 17.9,16.2 
			18,16.2 18.1,16.2 18.2,16.2 18.3,16.2 18.3,16.2 18.4,16.2 18.5,16.1 18.5,16.1 18.5,16.1 18.6,16 18.6,16 18.6,15.9 18.6,15.8 
			18.6,15.8 18.5,15.7 18.4,15.7 18.4,15.6 18.3,15.6 18.1,15.5 18,15.5 17.9,15.4 17.8,15.4 17.7,15.3 17.6,15.2 17.5,15.1 
			17.5,15 17.5,14.8 17.5,14.6 17.5,14.5 17.5,14.4 17.5,14.3 17.6,14.2 17.6,14.2 17.7,14.1 17.7,14 17.8,13.9 17.9,13.9 18,13.8 
			18.1,13.8 18.2,13.8 18.3,13.7 18.5,13.7 18.6,13.7 18.8,13.7 18.9,13.7 19,13.7 19.1,13.7 19.1,13.7 19.2,13.7 19.3,13.7 
			19.3,13.7 19.4,13.7 19.4,13.7 19.5,13.8 19.5,13.8 19.6,13.8 19.6,13.8 19.6,13.8 19.6,13.8 19.7,13.8 19.5,14.4 19.5,14.4 		"/>
		<polyline class="st4" points="19.5,14.4 19.5,14.4 19.5,14.4 19.4,14.4 19.4,14.4 19.4,14.4 19.3,14.4 19.3,14.4 19.2,14.4 
			19.2,14.4 19.2,14.4 19.1,14.4 19.1,14.4 19,14.4 19,14.4 18.9,14.4 18.8,14.4 18.7,14.4 18.7,14.4 18.7,14.4 18.6,14.4 
			18.6,14.4 18.5,14.4 18.5,14.5 18.5,14.5 18.4,14.5 18.4,14.5 18.4,14.6 18.4,14.6 18.4,14.6 18.4,14.7 18.4,14.7 18.4,14.7 
			18.4,14.8 18.4,14.8 18.4,14.8 18.5,14.9 18.6,14.9 18.6,14.9 18.7,15 18.8,15 18.9,15 19,15.1 19.1,15.1 19.2,15.2 19.3,15.2 
			19.3,15.3 19.4,15.4 19.4,15.5 19.5,15.6 19.5,15.8 19.5,15.9 19.5,15.9 19.4,16.1 19.4,16.2 19.4,16.3 19.3,16.4 19.2,16.5 
			19.2,16.6 19.1,16.6 19,16.7 18.9,16.7 18.8,16.7 18.7,16.8 18.6,16.8 18.5,16.8 18.4,16.8 18.3,16.8 18.2,16.8 18.2,16.8 
			18.1,16.8 18,16.8 17.9,16.8 17.8,16.8 17.7,16.8 17.7,16.8 17.6,16.8 17.5,16.8 17.5,16.8 17.4,16.8 17.4,16.8 17.3,16.8 
			17.3,16.8 17.2,16.7 17.2,16.7 17.1,16.7 17.2,16.1 17.2,16.1 17.3,16.1 17.3,16.1 17.3,16.1 17.4,16.1 17.4,16.1 17.5,16.1 
			17.6,16.1 17.6,16.2 17.7,16.2 17.8,16.2 17.9,16.2 17.9,16.2 18,16.2 18.1,16.2 18.2,16.2 18.3,16.2 18.3,16.2 18.3,16.2 
			18.4,16.2 18.5,16.1 18.5,16.1 18.5,16.1 18.6,16 18.6,16 18.6,15.9 18.6,15.9 18.6,15.8 18.6,15.8 18.5,15.7 18.4,15.7 
			18.4,15.6 18.3,15.6 18.1,15.5 18,15.5 17.9,15.4 17.8,15.4 17.7,15.3 17.6,15.2 17.5,15.1 17.5,15 17.5,14.8 17.5,14.6 
			17.5,14.6 17.5,14.5 17.5,14.4 17.5,14.3 17.6,14.2 17.6,14.2 17.7,14.1 17.7,14 17.8,13.9 17.9,13.9 18,13.8 18.1,13.8 
			18.2,13.8 18.3,13.7 18.5,13.7 18.6,13.7 18.8,13.7 18.8,13.7 18.9,13.7 19,13.7 19.1,13.7 19.1,13.7 19.2,13.7 19.3,13.7 
			19.3,13.7 19.4,13.7 19.4,13.7 19.5,13.8 19.5,13.8 19.6,13.8 19.6,13.8 19.6,13.8 19.6,13.8 19.7,13.8 19.5,14.4 		"/>
		<polygon class="st3" points="20.2,13.1 21,13.1 20.9,13.8 21.3,13.8 21.2,14.4 20.7,14.4 20.5,16 20.5,16 20.5,16.1 20.5,16.1 
			20.5,16.2 20.6,16.2 20.6,16.2 20.7,16.2 20.8,16.2 20.8,16.2 20.9,16.2 20.9,16.2 21,16.2 21,16.2 21.1,16.2 21.1,16.2 
			21.1,16.2 21,16.7 21,16.7 20.9,16.7 20.9,16.7 20.9,16.7 20.9,16.7 20.9,16.8 20.8,16.8 20.8,16.8 20.8,16.8 20.7,16.8 
			20.7,16.8 20.7,16.8 20.6,16.8 20.6,16.8 20.5,16.8 20.5,16.8 20.3,16.8 20.2,16.8 20.1,16.8 20,16.8 19.9,16.8 19.8,16.7 
			19.8,16.7 19.7,16.7 19.7,16.6 19.7,16.6 19.6,16.6 19.6,16.5 19.6,16.4 19.6,16.4 19.6,16.3 19.6,16.3 19.6,16.2 20.2,13.1 
			20.2,13.1 		"/>
		<polyline class="st4" points="20.2,13.1 21,13.1 20.9,13.8 21.3,13.8 21.2,14.4 20.7,14.4 20.5,16 20.5,16 20.5,16 20.5,16.1 
			20.5,16.1 20.5,16.2 20.6,16.2 20.6,16.2 20.7,16.2 20.8,16.2 20.8,16.2 20.8,16.2 20.9,16.2 20.9,16.2 21,16.2 21,16.2 
			21.1,16.2 21.1,16.2 21.1,16.2 21,16.7 21,16.7 21,16.7 20.9,16.7 20.9,16.7 20.9,16.7 20.9,16.7 20.9,16.8 20.8,16.8 20.8,16.8 
			20.8,16.8 20.7,16.8 20.7,16.8 20.7,16.8 20.6,16.8 20.6,16.8 20.5,16.8 20.5,16.8 20.3,16.8 20.3,16.8 20.2,16.8 20.1,16.8 
			20,16.8 19.9,16.8 19.8,16.7 19.8,16.7 19.7,16.7 19.7,16.6 19.7,16.6 19.6,16.6 19.6,16.5 19.6,16.4 19.6,16.4 19.6,16.3 
			19.6,16.3 19.6,16.2 20.2,13.1 		"/>
		<polyline class="st4" points="22,15.5 22,15.5 22,15.5 22,15.6 22,15.6 22,15.7 22,15.8 22,15.8 22,15.9 22.1,15.9 22.1,16 
			22.2,16 22.2,16 22.3,16.1 22.3,16.1 22.4,16.1 22.4,16.1 22.5,16.2 22.5,16.2 22.6,16.2 22.6,16.2 22.7,16.2 22.8,16.2 
			22.8,16.2 22.9,16.2 23,16.2 23.1,16.2 23.1,16.2 23.2,16.2 23.3,16.1 23.4,16.1 23.5,16.1 23.5,16.1 23.6,16 23.7,16 23.6,16.7 
			23.6,16.7 23.5,16.7 23.5,16.7 23.5,16.7 23.4,16.7 23.4,16.8 23.3,16.8 23.3,16.8 23.2,16.8 23.2,16.8 23.1,16.8 23.1,16.8 
			23,16.8 22.9,16.8 22.8,16.8 22.8,16.8 22.7,16.8 22.7,16.8 22.5,16.8 22.4,16.8 22.2,16.8 22.1,16.7 22,16.7 21.8,16.7 
			21.7,16.6 21.6,16.5 21.5,16.4 21.4,16.3 21.3,16.2 21.2,16 21.2,15.8 21.1,15.6 21.1,15.4 21.1,15.2 21.1,15.2 21.2,15.1 
			21.2,15 21.2,14.9 21.2,14.8 21.3,14.7 21.3,14.5 21.4,14.4 21.5,14.3 21.6,14.2 21.7,14.1 21.8,14 21.9,13.9 22.1,13.8 
			22.3,13.8 22.5,13.7 22.7,13.7 22.7,13.7 22.8,13.7 22.9,13.7 23.1,13.7 23.2,13.8 23.3,13.8 23.4,13.9 23.5,13.9 23.6,14 
			23.7,14.1 23.8,14.2 23.8,14.4 23.9,14.5 23.9,14.7 23.9,14.9 23.9,15.1 23.8,15.3 23.8,15.5 21.7,15.5 21.9,14.9 23.1,14.9 
			23.1,14.9 23.1,14.9 23.1,14.8 23.1,14.7 23.1,14.7 23.1,14.6 23.1,14.6 23,14.5 23,14.5 23,14.5 22.9,14.4 22.9,14.4 22.8,14.4 
			22.8,14.4 22.8,14.4 22.7,14.4 22.7,14.3 22.7,14.3 22.6,14.3 22.5,14.4 22.5,14.4 22.4,14.4 22.4,14.4 22.4,14.4 22.3,14.5 
			22.3,14.5 22.2,14.5 22.2,14.6 22.2,14.6 22.1,14.7 22.1,14.7 22.1,14.8 22.1,14.8 22.1,14.9 22,15.5 		"/>
		<polygon class="st3" points="28.8,13.9 28.7,13.9 28.7,13.9 28.6,13.9 28.6,13.9 28.6,13.8 28.5,13.8 28.5,13.8 28.4,13.8 
			28.4,13.8 28.3,13.8 28.2,13.8 28.2,13.8 28.1,13.7 28,13.7 28,13.7 27.9,13.7 27.8,13.7 27.8,13.7 27.7,13.8 27.6,13.8 
			27.5,13.8 27.4,13.8 27.4,13.9 27.3,13.9 27.2,14 27.1,14.1 27.1,14.1 27,14.2 26.9,14.4 26.9,14.5 26.8,14.7 26.8,14.9 26.8,15 
			26.7,15.1 26.7,15.2 26.7,15.3 26.8,15.4 26.8,15.4 26.8,15.5 26.8,15.6 26.9,15.7 26.9,15.8 27,15.8 27,15.9 27.1,15.9 27.2,16 
			27.3,16 27.4,16 27.5,16.1 27.5,16.1 27.6,16.1 27.6,16.1 27.7,16.1 27.7,16.1 27.8,16.1 27.9,16.1 28,16.1 28,16.1 28.1,16 
			28.2,16 28.2,16 28.3,15.9 28.4,15.9 28.4,15.8 28.3,16.6 28.3,16.6 28.3,16.6 28.2,16.7 28.2,16.7 28.2,16.7 28.1,16.7 
			28.1,16.7 28,16.8 28,16.8 27.9,16.8 27.8,16.8 27.7,16.8 27.6,16.8 27.5,16.8 27.3,16.8 27.2,16.8 27,16.8 26.9,16.8 26.8,16.7 
			26.7,16.7 26.5,16.6 26.4,16.5 26.3,16.4 26.2,16.3 26.1,16.2 26,16 25.9,15.9 25.9,15.7 25.9,15.5 25.8,15.3 25.9,15.1 
			25.9,14.8 25.9,14.7 25.9,14.6 26,14.5 26,14.4 26,14.3 26.1,14.2 26.1,14.1 26.1,14 26.2,13.9 26.2,13.8 26.3,13.8 26.3,13.7 
			26.4,13.6 26.4,13.6 26.5,13.5 26.5,13.4 26.6,13.4 26.7,13.3 26.7,13.3 26.8,13.2 26.9,13.2 27,13.1 27,13.1 27.1,13.1 27.2,13 
			27.3,13 27.4,13 27.5,13 27.6,13 27.7,13 27.8,13 27.9,13 28,13 28.1,13 28.2,13 28.3,13 28.3,13 28.4,13 28.5,13 28.6,13 
			28.6,13.1 28.7,13.1 28.7,13.1 28.8,13.1 28.8,13.1 28.9,13.1 28.9,13.1 28.9,13.2 28.8,13.9 28.8,13.9 		"/>
		<polyline class="st4" points="28.8,13.9 28.8,13.9 28.7,13.9 28.7,13.9 28.6,13.9 28.6,13.9 28.6,13.8 28.5,13.8 28.5,13.8 
			28.4,13.8 28.4,13.8 28.3,13.8 28.2,13.8 28.2,13.8 28.1,13.7 28,13.7 28,13.7 27.9,13.7 27.9,13.7 27.8,13.7 27.8,13.7 
			27.7,13.8 27.6,13.8 27.5,13.8 27.4,13.8 27.4,13.9 27.3,13.9 27.2,14 27.1,14.1 27.1,14.1 27,14.2 26.9,14.4 26.9,14.5 
			26.8,14.7 26.8,14.9 26.8,14.9 26.8,15 26.7,15.1 26.7,15.2 26.7,15.3 26.8,15.4 26.8,15.4 26.8,15.5 26.8,15.6 26.9,15.7 
			26.9,15.8 27,15.8 27,15.9 27.1,15.9 27.2,16 27.3,16 27.4,16 27.4,16 27.5,16.1 27.5,16.1 27.6,16.1 27.6,16.1 27.7,16.1 
			27.7,16.1 27.8,16.1 27.9,16.1 28,16.1 28,16.1 28.1,16 28.2,16 28.2,16 28.3,15.9 28.4,15.9 28.4,15.8 28.3,16.6 28.3,16.6 
			28.3,16.6 28.3,16.6 28.2,16.7 28.2,16.7 28.2,16.7 28.1,16.7 28.1,16.7 28,16.8 28,16.8 27.9,16.8 27.8,16.8 27.7,16.8 
			27.6,16.8 27.5,16.8 27.3,16.8 27.2,16.8 27.2,16.8 27,16.8 26.9,16.8 26.8,16.7 26.7,16.7 26.5,16.6 26.4,16.5 26.3,16.4 
			26.2,16.3 26.1,16.2 26,16 25.9,15.9 25.9,15.7 25.9,15.5 25.8,15.3 25.9,15.1 25.9,14.8 25.9,14.8 25.9,14.7 25.9,14.6 26,14.5 
			26,14.4 26,14.3 26.1,14.2 26.1,14.1 26.1,14 26.2,13.9 26.2,13.8 26.3,13.8 26.3,13.7 26.4,13.6 26.4,13.6 26.5,13.5 26.5,13.4 
			26.6,13.4 26.7,13.3 26.7,13.3 26.8,13.2 26.9,13.2 27,13.1 27,13.1 27.1,13.1 27.2,13 27.3,13 27.4,13 27.5,13 27.6,13 27.7,13 
			27.8,13 27.9,13 27.9,13 28,13 28.1,13 28.2,13 28.3,13 28.3,13 28.4,13 28.5,13 28.6,13 28.6,13.1 28.7,13.1 28.7,13.1 
			28.8,13.1 28.8,13.1 28.9,13.1 28.9,13.1 28.9,13.2 28.8,13.9 		"/>
		<polygon class="st3" points="35.8,16.8 35,16.8 35,16.5 35,16.5 35,16.5 34.9,16.6 34.9,16.6 34.8,16.7 34.8,16.7 34.7,16.7 
			34.7,16.8 34.6,16.8 34.6,16.8 34.5,16.8 34.5,16.8 34.4,16.8 34.4,16.9 34.3,16.9 34.2,16.9 34.2,16.9 34,16.9 33.9,16.8 
			33.8,16.8 33.7,16.7 33.6,16.6 33.5,16.5 33.4,16.4 33.3,16.3 33.3,16.2 33.2,16 33.2,15.9 33.2,15.8 33.2,15.6 33.2,15.5 
			33.2,15.3 33.2,15.2 33.2,15 33.3,14.8 33.4,14.7 33.4,14.6 33.5,14.4 33.6,14.3 33.7,14.2 33.8,14.1 33.9,14 34,14 34.1,13.9 
			34.2,13.9 34.3,13.8 34.4,13.8 34.5,13.8 34.6,13.8 34.7,13.8 34.8,13.8 34.9,13.8 34.9,13.8 35,13.8 35.1,13.9 35.1,13.9 
			35.2,13.9 35.2,14 35.3,14 35.3,14 35.3,14.1 35.4,14.1 35.4,14.1 35.4,14.2 35.4,14.2 35.4,14.2 35.6,13.1 36.4,13.1 35.8,16.8 
			35.8,16.8 		"/>
		<polyline class="st4" points="35.8,16.8 35,16.8 35,16.5 35,16.5 35,16.5 35,16.5 34.9,16.6 34.9,16.6 34.8,16.7 34.8,16.7 
			34.7,16.7 34.7,16.8 34.6,16.8 34.6,16.8 34.5,16.8 34.5,16.8 34.4,16.8 34.4,16.9 34.3,16.9 34.2,16.9 34.2,16.9 34.2,16.9 
			34,16.9 33.9,16.8 33.8,16.8 33.7,16.7 33.6,16.6 33.5,16.5 33.4,16.4 33.3,16.3 33.3,16.2 33.2,16 33.2,15.9 33.2,15.8 
			33.2,15.6 33.2,15.5 33.2,15.3 33.2,15.2 33.2,15.2 33.2,15 33.3,14.8 33.4,14.7 33.4,14.6 33.5,14.4 33.6,14.3 33.7,14.2 
			33.8,14.1 33.9,14 34,14 34.1,13.9 34.2,13.9 34.3,13.8 34.4,13.8 34.5,13.8 34.6,13.8 34.6,13.8 34.7,13.8 34.8,13.8 34.9,13.8 
			34.9,13.8 35,13.8 35.1,13.9 35.1,13.9 35.2,13.9 35.2,14 35.3,14 35.3,14 35.3,14.1 35.4,14.1 35.4,14.1 35.4,14.2 35.4,14.2 
			35.4,14.2 35.6,13.1 36.4,13.1 35.8,16.8 		"/>
		<polygon class="st1" points="34.5,16.1 34.6,16.1 34.6,16.1 34.7,16.1 34.8,16.1 34.8,16 34.9,16 34.9,15.9 35,15.9 35,15.8 
			35.1,15.8 35.1,15.7 35.1,15.6 35.2,15.6 35.2,15.5 35.2,15.4 35.2,15.3 35.2,15.3 35.2,15.2 35.2,15.1 35.2,15 35.2,14.9 
			35.2,14.9 35.2,14.8 35.2,14.7 35.1,14.7 35.1,14.6 35.1,14.6 35,14.5 35,14.5 34.9,14.5 34.9,14.5 34.8,14.5 34.7,14.5 
			34.7,14.5 34.6,14.5 34.5,14.5 34.5,14.6 34.4,14.6 34.4,14.7 34.3,14.7 34.3,14.8 34.2,14.8 34.2,14.9 34.2,15 34.1,15.1 
			34.1,15.1 34.1,15.2 34.1,15.3 34.1,15.4 34.1,15.6 34.1,15.7 34.1,15.8 34.2,16 34.3,16 34.4,16.1 34.5,16.1 34.5,16.1 		"/>
		<polygon class="st3" points="17,16.2 16.9,16.8 16.2,16.8 16.2,16.7 16.2,16.6 16.2,16.5 16.2,16.5 16.2,16.5 16.1,16.6 
			16.1,16.6 16,16.7 15.9,16.7 15.9,16.7 15.8,16.8 15.7,16.8 15.6,16.8 15.6,16.8 15.5,16.8 15.4,16.9 15.3,16.9 15.2,16.9 
			15.1,16.9 15.1,16.8 15,16.8 14.9,16.8 14.8,16.8 14.7,16.7 14.7,16.7 14.6,16.6 14.6,16.6 14.5,16.5 14.5,16.4 14.5,16.4 
			14.4,16.3 14.4,16.3 14.4,16.2 14.4,16.1 14.4,16.1 14.4,16 14.4,15.9 14.4,15.8 14.4,15.7 14.5,15.6 14.5,15.5 14.6,15.4 
			14.6,15.3 14.7,15.3 14.8,15.2 14.9,15.1 14.9,15.1 15,15 15.1,15 15.2,15 15.3,14.9 15.4,14.9 15.4,14.9 15.4,14.9 15.5,14.9 
			15.5,14.9 15.5,14.9 15.6,14.9 15.6,14.9 15.6,14.9 15.7,14.9 15.7,14.9 15.8,14.9 15.8,14.9 15.9,14.9 15.9,14.9 16,14.9 
			16,14.9 16.1,14.9 16.1,14.9 16.2,14.9 16.3,14.9 16.3,14.9 16.4,14.9 16.4,14.9 16.4,14.9 16.4,14.9 16.4,14.8 16.4,14.8 
			16.4,14.7 16.4,14.6 16.4,14.6 16.4,14.5 16.3,14.5 16.3,14.5 16.2,14.4 16.1,14.4 16.1,14.4 16,14.4 15.9,14.4 15.8,14.4 
			15.7,14.4 15.6,14.4 15.5,14.4 15.4,14.4 15.3,14.4 15.3,14.4 15.2,14.5 15.1,14.5 15,14.5 15,14.5 14.9,14.5 14.9,14.5 
			14.9,14.6 15.1,13.9 15.1,13.8 15.2,13.8 15.2,13.8 15.3,13.8 15.4,13.8 15.5,13.8 15.5,13.8 15.6,13.7 15.7,13.7 15.8,13.7 
			15.9,13.7 15.9,13.7 16,13.7 16.1,13.7 16.2,13.7 16.3,13.7 16.4,13.7 16.5,13.8 16.6,13.8 16.7,13.8 16.8,13.8 16.8,13.9 
			16.9,13.9 17,14 17.1,14 17.1,14.1 17.2,14.2 17.2,14.3 17.3,14.4 17.3,14.5 17.3,14.6 17.3,14.7 17,16.2 17,16.2 		"/>
		<polyline class="st4" points="17,16.2 16.9,16.8 16.2,16.8 16.2,16.8 16.2,16.7 16.2,16.6 16.2,16.5 16.2,16.5 16.2,16.5 
			16.2,16.5 16.1,16.6 16.1,16.6 16,16.7 15.9,16.7 15.9,16.7 15.8,16.8 15.7,16.8 15.6,16.8 15.6,16.8 15.5,16.8 15.4,16.9 
			15.3,16.9 15.2,16.9 15.1,16.9 15.1,16.8 15.1,16.8 15,16.8 14.9,16.8 14.8,16.8 14.7,16.7 14.7,16.7 14.6,16.6 14.6,16.6 
			14.5,16.5 14.5,16.4 14.5,16.4 14.4,16.3 14.4,16.3 14.4,16.2 14.4,16.1 14.4,16.1 14.4,16 14.4,16 14.4,15.9 14.4,15.8 
			14.4,15.7 14.5,15.6 14.5,15.5 14.6,15.4 14.6,15.3 14.7,15.3 14.8,15.2 14.9,15.1 14.9,15.1 15,15 15.1,15 15.2,15 15.3,14.9 
			15.4,14.9 15.4,14.9 15.4,14.9 15.4,14.9 15.5,14.9 15.5,14.9 15.5,14.9 15.6,14.9 15.6,14.9 15.6,14.9 15.7,14.9 15.7,14.9 
			15.8,14.9 15.8,14.9 15.9,14.9 15.9,14.9 16,14.9 16,14.9 16,14.9 16.1,14.9 16.1,14.9 16.2,14.9 16.3,14.9 16.3,14.9 16.4,14.9 
			16.4,14.9 16.4,14.9 16.4,14.9 16.4,14.9 16.4,14.8 16.4,14.8 16.4,14.7 16.4,14.7 16.4,14.6 16.4,14.6 16.4,14.5 16.3,14.5 
			16.3,14.5 16.2,14.4 16.1,14.4 16.1,14.4 16.1,14.4 16,14.4 15.9,14.4 15.8,14.4 15.7,14.4 15.6,14.4 15.5,14.4 15.4,14.4 
			15.3,14.4 15.3,14.4 15.2,14.5 15.1,14.5 15,14.5 15,14.5 14.9,14.5 14.9,14.5 14.9,14.6 15.1,13.9 15.1,13.9 15.1,13.8 
			15.2,13.8 15.2,13.8 15.3,13.8 15.4,13.8 15.5,13.8 15.5,13.8 15.6,13.7 15.7,13.7 15.8,13.7 15.9,13.7 15.9,13.7 16,13.7 
			16.1,13.7 16.2,13.7 16.3,13.7 16.3,13.7 16.4,13.7 16.5,13.8 16.6,13.8 16.7,13.8 16.8,13.8 16.8,13.9 16.9,13.9 17,14 17.1,14 
			17.1,14.1 17.2,14.2 17.2,14.3 17.3,14.4 17.3,14.5 17.3,14.6 17.3,14.7 17,16.2 		"/>
		<polygon class="st2" points="16.3,15.4 16.3,15.4 16.3,15.4 16.3,15.4 16.2,15.4 16.2,15.4 16.2,15.4 16.1,15.4 16.1,15.4 
			16,15.4 16,15.4 15.9,15.4 15.9,15.4 15.9,15.4 15.8,15.4 15.8,15.4 15.8,15.4 15.7,15.5 15.7,15.5 15.7,15.5 15.6,15.5 
			15.6,15.5 15.6,15.5 15.5,15.5 15.5,15.6 15.5,15.6 15.4,15.6 15.4,15.7 15.4,15.7 15.3,15.7 15.3,15.8 15.3,15.8 15.3,15.9 
			15.3,16 15.3,16 15.3,16.1 15.4,16.1 15.4,16.2 15.5,16.2 15.5,16.2 15.5,16.2 15.6,16.2 15.7,16.2 15.8,16.2 15.8,16.1 
			15.9,16.1 16,16.1 16,16.1 16,16 16.1,16 16.1,16 16.1,16 16.2,15.9 16.2,15.9 16.2,15.9 16.2,15.8 16.2,15.8 16.3,15.7 
			16.3,15.6 16.3,15.5 16.3,15.4 16.3,15.4 		"/>
		<polygon class="st3" points="11,16.8 10.2,16.8 10.9,13.1 12.2,13.1 12.3,15.3 13.3,13.1 14.7,13.1 14,16.8 13.2,16.8 13.7,14 
			13.7,14 12.5,16.8 11.7,16.8 11.7,16.7 11.6,16.4 11.6,16 11.6,15.4 11.6,14.9 11.5,14.5 11.5,14.2 11.5,14 11.5,14 11.5,14 
			11.5,14 11.5,14 11,16.8 11,16.8 		"/>
		<polyline class="st4" points="11,16.8 10.2,16.8 10.9,13.1 12.2,13.1 12.3,15.3 13.3,13.1 14.7,13.1 14,16.8 13.2,16.8 13.7,14 
			13.7,14 12.5,16.8 11.7,16.8 11.7,16.8 11.7,16.7 11.6,16.4 11.6,16 11.6,15.4 11.6,14.9 11.5,14.5 11.5,14.2 11.5,14 11.5,14 
			11.5,14 11.5,14 11.5,14 11.5,14 11,16.8 		"/>
		<polygon class="st3" points="31.1,16.2 31,16.8 30.3,16.8 30.3,16.7 30.3,16.6 30.3,16.5 30.3,16.5 30.3,16.5 30.2,16.6 
			30.2,16.6 30.1,16.7 30.1,16.7 30,16.7 29.9,16.8 29.8,16.8 29.8,16.8 29.7,16.8 29.6,16.8 29.5,16.9 29.4,16.9 29.4,16.9 
			29.3,16.9 29.2,16.8 29.1,16.8 29,16.8 28.9,16.8 28.9,16.7 28.8,16.7 28.7,16.6 28.7,16.6 28.7,16.5 28.6,16.4 28.6,16.4 
			28.6,16.3 28.6,16.3 28.6,16.2 28.5,16.1 28.5,16.1 28.5,16 28.5,15.9 28.6,15.8 28.6,15.7 28.6,15.6 28.7,15.5 28.7,15.4 
			28.8,15.3 28.8,15.3 28.9,15.2 29,15.1 29.1,15.1 29.2,15 29.3,15 29.3,15 29.4,14.9 29.5,14.9 29.5,14.9 29.6,14.9 29.6,14.9 
			29.6,14.9 29.6,14.9 29.7,14.9 29.7,14.9 29.8,14.9 29.8,14.9 29.9,14.9 29.9,14.9 30,14.9 30,14.9 30.1,14.9 30.1,14.9 
			30.1,14.9 30.2,14.9 30.3,14.9 30.3,14.9 30.4,14.9 30.4,14.9 30.5,14.9 30.5,14.9 30.5,14.9 30.5,14.9 30.5,14.8 30.6,14.8 
			30.6,14.7 30.5,14.6 30.5,14.6 30.5,14.5 30.4,14.5 30.4,14.5 30.3,14.4 30.3,14.4 30.2,14.4 30.1,14.4 30,14.4 29.9,14.4 
			29.9,14.4 29.8,14.4 29.7,14.4 29.6,14.4 29.5,14.4 29.4,14.4 29.3,14.5 29.3,14.5 29.2,14.5 29.1,14.5 29.1,14.5 29,14.5 
			29,14.6 29.2,13.9 29.3,13.8 29.3,13.8 29.4,13.8 29.5,13.8 29.5,13.8 29.6,13.8 29.7,13.8 29.8,13.7 29.8,13.7 29.9,13.7 
			30,13.7 30.1,13.7 30.2,13.7 30.3,13.7 30.4,13.7 30.5,13.7 30.5,13.7 30.6,13.8 30.7,13.8 30.8,13.8 30.9,13.8 31,13.9 
			31.1,13.9 31.1,14 31.2,14 31.3,14.1 31.3,14.2 31.4,14.3 31.4,14.4 31.4,14.5 31.4,14.6 31.4,14.7 31.1,16.2 31.1,16.2 		"/>
		<polygon class="st3" points="31,16.8 31,16.8 31.1,16.2 31.1,16.2 31,16.8 31,16.8 31,16.8 31,16.8 31,16.8 31,16.8 31,16.8 		"/>
		<polygon class="st3" points="30.3,16.8 30.3,16.8 31,16.8 31,16.8 30.3,16.8 30.3,16.8 30.3,16.8 30.3,16.8 30.3,16.8 30.3,16.8 
			30.3,16.8 		"/>
		<polygon class="st3" points="30.3,16.5 30.3,16.5 30.3,16.5 30.3,16.6 30.3,16.7 30.3,16.8 30.3,16.8 30.3,16.7 30.3,16.6 
			30.3,16.5 30.3,16.5 30.3,16.5 30.3,16.5 30.3,16.5 		"/>
		<polygon class="st3" points="29.2,16.9 29.2,16.9 29.3,16.9 29.4,16.9 29.4,16.9 29.5,16.9 29.6,16.9 29.7,16.9 29.8,16.8 
			29.8,16.8 29.9,16.8 30,16.7 30.1,16.7 30.1,16.7 30.2,16.6 30.2,16.6 30.3,16.5 30.3,16.5 30.3,16.5 30.2,16.5 30.2,16.6 
			30.2,16.6 30.1,16.6 30,16.7 30,16.7 29.9,16.7 29.8,16.8 29.8,16.8 29.7,16.8 29.6,16.8 29.5,16.8 29.4,16.8 29.4,16.9 
			29.3,16.8 29.2,16.8 29.2,16.8 29.2,16.9 29.2,16.9 		"/>
		<polygon class="st3" points="28.5,16 28.5,16 28.5,16.1 28.5,16.1 28.5,16.2 28.5,16.3 28.6,16.3 28.6,16.4 28.6,16.5 28.6,16.5 
			28.7,16.6 28.7,16.6 28.8,16.7 28.9,16.7 28.9,16.8 29,16.8 29.1,16.8 29.2,16.9 29.2,16.8 29.1,16.8 29,16.8 28.9,16.7 
			28.9,16.7 28.8,16.7 28.8,16.6 28.7,16.6 28.7,16.5 28.6,16.4 28.6,16.4 28.6,16.3 28.6,16.3 28.6,16.2 28.6,16.1 28.6,16.1 
			28.6,16 28.6,16 28.5,16 28.5,16 		"/>
		<polygon class="st3" points="29.5,14.9 29.5,14.9 29.4,14.9 29.3,15 29.3,15 29.2,15 29.1,15.1 29,15.1 28.9,15.2 28.8,15.3 
			28.8,15.3 28.7,15.4 28.6,15.5 28.6,15.6 28.6,15.7 28.5,15.8 28.5,15.9 28.5,16 28.6,16 28.6,15.9 28.6,15.8 28.6,15.7 
			28.6,15.6 28.7,15.5 28.7,15.4 28.8,15.3 28.9,15.3 28.9,15.2 29,15.2 29.1,15.1 29.2,15.1 29.3,15 29.4,15 29.4,15 29.5,14.9 
			29.5,14.9 29.5,14.9 29.5,14.9 		"/>
		<polygon class="st3" points="30.1,14.9 30.1,14.9 30.1,14.9 30.1,14.9 30,14.9 30,14.9 29.9,14.9 29.9,14.9 29.8,14.9 29.8,14.9 
			29.7,14.9 29.7,14.9 29.6,14.9 29.6,14.9 29.6,14.9 29.6,14.9 29.5,14.9 29.5,14.9 29.5,14.9 29.5,14.9 29.6,14.9 29.6,14.9 
			29.6,14.9 29.6,14.9 29.7,14.9 29.7,14.9 29.8,14.9 29.8,14.9 29.9,14.9 29.9,14.9 30,14.9 30,14.9 30.1,14.9 30.1,14.9 
			30.1,14.9 30.1,14.9 30.1,14.9 30.1,14.9 		"/>
		<polygon class="st3" points="30.5,14.9 30.5,14.9 30.5,14.9 30.5,14.9 30.4,14.9 30.4,14.9 30.3,14.9 30.3,14.9 30.2,14.9 
			30.1,14.9 30.1,14.9 30.2,14.9 30.3,14.9 30.3,14.9 30.4,14.9 30.4,14.9 30.5,14.9 30.5,14.9 30.5,14.9 30.5,14.9 30.5,14.9 
			30.5,14.9 30.5,14.9 30.5,14.9 30.5,14.9 		"/>
		<polygon class="st3" points="30.5,14.7 30.5,14.7 30.5,14.8 30.5,14.8 30.5,14.9 30.5,14.9 30.5,14.9 30.6,14.9 30.6,14.8 
			30.6,14.8 30.6,14.7 30.6,14.7 30.5,14.7 30.5,14.7 		"/>
		<polygon class="st3" points="30.2,14.4 30.2,14.4 30.3,14.4 30.3,14.4 30.4,14.5 30.4,14.5 30.5,14.5 30.5,14.6 30.5,14.6 
			30.5,14.7 30.6,14.7 30.6,14.6 30.5,14.6 30.5,14.5 30.5,14.5 30.4,14.4 30.3,14.4 30.3,14.4 30.2,14.4 30.2,14.4 30.2,14.4 
			30.2,14.4 		"/>
		<polygon class="st3" points="29,14.6 29,14.6 29,14.6 29.1,14.5 29.1,14.5 29.2,14.5 29.3,14.5 29.3,14.5 29.4,14.5 29.5,14.5 
			29.6,14.4 29.7,14.4 29.8,14.4 29.9,14.4 29.9,14.4 30,14.4 30.1,14.4 30.2,14.4 30.2,14.4 30.1,14.4 30,14.4 29.9,14.4 
			29.9,14.4 29.8,14.4 29.7,14.4 29.6,14.4 29.5,14.4 29.4,14.4 29.3,14.4 29.2,14.5 29.2,14.5 29.1,14.5 29.1,14.5 29,14.5 
			29,14.5 29,14.6 29,14.6 29,14.6 		"/>
		<polygon class="st3" points="29.2,13.9 29.2,13.9 29,14.6 29,14.6 29.2,13.9 29.2,13.9 29.2,13.9 29.2,13.9 29.2,13.9 29.2,13.9 
			29.2,13.9 		"/>
		<polygon class="st3" points="30.5,13.7 30.5,13.7 30.4,13.7 30.3,13.7 30.2,13.7 30.1,13.7 30,13.7 29.9,13.7 29.8,13.7 
			29.8,13.7 29.7,13.7 29.6,13.7 29.5,13.8 29.5,13.8 29.4,13.8 29.3,13.8 29.3,13.8 29.2,13.9 29.2,13.9 29.3,13.9 29.3,13.8 
			29.4,13.8 29.5,13.8 29.5,13.8 29.6,13.8 29.7,13.8 29.8,13.8 29.8,13.8 29.9,13.8 30,13.8 30.1,13.8 30.2,13.8 30.3,13.8 
			30.4,13.8 30.5,13.8 30.5,13.8 30.5,13.7 30.5,13.7 		"/>
		<polygon class="st3" points="31.4,14.7 31.4,14.7 31.4,14.6 31.4,14.5 31.4,14.4 31.4,14.3 31.4,14.2 31.3,14.1 31.2,14 31.2,14 
			31.1,13.9 31,13.9 30.9,13.8 30.8,13.8 30.7,13.8 30.6,13.7 30.5,13.7 30.5,13.7 30.5,13.8 30.5,13.8 30.6,13.8 30.7,13.8 
			30.8,13.8 30.9,13.9 31,13.9 31.1,13.9 31.1,14 31.2,14.1 31.3,14.1 31.3,14.2 31.4,14.3 31.4,14.4 31.4,14.5 31.4,14.6 
			31.4,14.7 31.4,14.7 31.4,14.7 31.4,14.7 		"/>
		<polygon class="st3" points="31.1,16.2 31.1,16.2 31.4,14.7 31.4,14.7 31.1,16.2 31.1,16.2 31.1,16.2 31.1,16.2 		"/>
		<polygon class="st1" points="30.4,15.4 30.4,15.4 30.4,15.4 30.4,15.4 30.4,15.4 30.3,15.4 30.3,15.4 30.3,15.4 30.2,15.4 
			30.2,15.4 30.1,15.4 30.1,15.4 30,15.4 30,15.4 30,15.4 29.9,15.4 29.9,15.4 29.9,15.4 29.8,15.5 29.8,15.5 29.8,15.5 29.7,15.5 
			29.7,15.5 29.7,15.5 29.6,15.6 29.6,15.6 29.6,15.6 29.5,15.6 29.5,15.7 29.5,15.7 29.5,15.8 29.4,15.8 29.4,15.9 29.4,16 
			29.4,16 29.5,16.1 29.5,16.1 29.5,16.2 29.6,16.2 29.6,16.2 29.7,16.2 29.8,16.2 29.8,16.2 29.9,16.2 30,16.1 30.1,16.1 
			30.1,16.1 30.2,16.1 30.2,16 30.2,16 30.3,16 30.3,15.9 30.3,15.9 30.4,15.9 30.4,15.8 30.4,15.8 30.4,15.8 30.4,15.7 30.4,15.6 
			30.4,15.5 30.4,15.4 30.4,15.4 		"/>
		<polygon class="st3" points="36.3,16.4 36.3,16.4 36.3,16.3 36.4,16.2 36.4,16.2 36.5,16.1 36.5,16.1 36.6,16.1 36.7,16 
			36.8,16.1 36.8,16.1 36.9,16.1 37,16.2 37,16.2 37.1,16.3 37.1,16.4 37.1,16.4 37,16.4 37,16.4 37,16.3 37,16.3 36.9,16.2 
			36.9,16.2 36.8,16.1 36.8,16.1 36.7,16.1 36.6,16.1 36.6,16.1 36.5,16.2 36.5,16.2 36.4,16.3 36.4,16.3 36.4,16.4 36.4,16.4 
			36.3,16.4 36.3,16.4 		"/>
		<polygon class="st3" points="36.6,16.4 36.6,16.3 36.7,16.3 36.7,16.3 36.8,16.3 36.8,16.3 36.8,16.3 36.8,16.3 36.8,16.3 
			36.8,16.3 36.8,16.4 36.8,16.4 36.8,16.4 36.8,16.4 36.8,16.4 36.7,16.4 36.7,16.4 36.7,16.4 36.8,16.4 36.8,16.4 36.8,16.4 
			36.8,16.4 36.8,16.4 36.8,16.4 36.8,16.3 36.8,16.3 36.8,16.3 36.8,16.3 36.8,16.3 36.7,16.3 36.7,16.3 36.7,16.3 36.6,16.3 
			36.6,16.4 36.6,16.4 36.6,16.4 		"/>
		<polygon class="st3" points="36.3,16.4 36.3,16.4 36.3,16.5 36.3,16.6 36.4,16.7 36.4,16.7 36.5,16.8 36.5,16.8 36.6,16.8 
			36.7,16.8 36.8,16.8 36.8,16.8 36.9,16.8 37,16.7 37,16.7 37.1,16.6 37.1,16.5 37.1,16.4 37.1,16.4 37,16.4 37,16.4 37,16.5 
			37,16.6 37,16.6 36.9,16.7 36.9,16.7 36.8,16.8 36.8,16.8 36.7,16.8 36.6,16.8 36.6,16.8 36.5,16.7 36.5,16.7 36.4,16.6 
			36.4,16.6 36.4,16.5 36.4,16.4 36.4,16.4 36.3,16.4 36.3,16.4 		"/>
		<polygon class="st3" points="36.6,16.4 36.6,16.6 36.6,16.6 36.6,16.5 36.7,16.5 36.8,16.6 36.8,16.6 36.7,16.5 36.8,16.5 
			36.8,16.5 36.8,16.5 36.8,16.4 36.8,16.4 36.7,16.4 36.7,16.4 36.6,16.4 36.6,16.4 36.6,16.4 36.6,16.4 		"/>
		<path class="st4" d="M36.3,16.4L36.3,16.4L36.3,16.4l0-0.2l0-0.1l0-0.1l0.1,0l0.1,0l0.1,0l0.1,0l0,0l0.1,0l0.1,0l0.1,0l0.1,0
			l0,0.1l0,0.1l0,0.1l0,0.1l0,0l0,0.1l0,0.1l0,0.1l0,0.1l-0.1,0l-0.1,0l-0.1,0l-0.1,0l0,0l-0.1,0l-0.1,0l-0.1,0l-0.1,0l0-0.1l0-0.1
			L36.3,16.4L36.3,16.4 M36.6,16.6L36.6,16.6l-0.1-0.3h0.2l0,0l0,0l0,0l0,0l0,0l0,0l0,0l0,0l0,0l0,0l0,0l0,0l0,0l0,0l0,0l0,0l0,0h0
			l0.1,0.1h-0.1l-0.1-0.1h-0.1V16.6 M36.7,16.4L36.7,16.4L36.7,16.4L36.7,16.4L36.7,16.4L36.7,16.4L36.7,16.4L36.7,16.4L36.7,16.4
			L36.7,16.4L36.7,16.4L36.7,16.4L36.7,16.4l0.1-0.1l0,0l0,0l0,0h0h0h-0.1L36.7,16.4L36.7,16.4 M36.7,16.8L36.7,16.8L36.7,16.8
			l0.1,0l0.1,0l0,0l0,0l0-0.1l0-0.1l0-0.1l0,0l0-0.1l0-0.1l0-0.1l0,0l0,0l-0.1,0l-0.1,0l-0.1,0l0,0l-0.1,0l-0.1,0l-0.1,0l0,0l0,0
			l0,0.1l0,0.1l0,0.1l0,0l0,0.1l0,0.1l0,0.1l0,0l0,0l0.1,0L36.7,16.8L36.7,16.8"/>
		<polygon class="st3" points="31.3,16.8 32.1,16.8 32.1,16.8 32.4,15.2 32.4,15.1 32.5,15.1 32.5,15 32.5,15 32.5,14.9 32.6,14.8 
			32.6,14.8 32.6,14.7 32.7,14.7 32.7,14.6 32.8,14.6 32.9,14.5 33,14.5 33.1,14.5 33.2,14.5 33.3,14.5 33.3,14.5 33.3,14.5 
			33.3,14.5 33.3,14.5 33.5,13.7 33.4,13.7 33.3,13.8 33.2,13.8 33.2,13.8 33.1,13.8 33,13.8 33,13.9 32.9,13.9 32.9,13.9 32.8,14 
			32.8,14 32.7,14.1 32.7,14.1 32.7,14.2 32.6,14.2 32.6,14.3 32.7,13.8 31.9,13.8 31.3,16.8 31.3,16.8 31.3,16.8 		"/>
		<polyline class="st4" points="31.3,16.8 32.1,16.8 32.1,16.8 32.4,15.2 32.4,15.2 32.4,15.1 32.5,15.1 32.5,15 32.5,15 32.5,14.9 
			32.6,14.8 32.6,14.8 32.6,14.7 32.7,14.7 32.7,14.6 32.8,14.6 32.9,14.5 33,14.5 33.1,14.5 33.2,14.5 33.3,14.5 33.3,14.5 
			33.3,14.5 33.3,14.5 33.3,14.5 33.3,14.5 33.5,13.7 33.5,13.7 33.4,13.7 33.3,13.8 33.2,13.8 33.2,13.8 33.1,13.8 33,13.8 
			33,13.9 32.9,13.9 32.9,13.9 32.8,14 32.8,14 32.7,14.1 32.7,14.1 32.7,14.2 32.6,14.2 32.6,14.3 32.7,13.8 31.9,13.8 31.3,16.8 
			31.3,16.8 		"/>
		<polygon class="st3" points="23.8,16.8 24.6,16.8 24.6,16.8 24.9,15.2 24.9,15.1 24.9,15.1 24.9,15 24.9,15 25,14.9 25,14.9 
			25,14.8 25.1,14.8 25.1,14.7 25.2,14.7 25.2,14.6 25.3,14.6 25.4,14.6 25.5,14.6 25.6,14.5 25.7,14.5 25.7,14.5 25.7,14.5 
			25.7,14.5 25.7,14.5 25.7,14.5 25.7,14.5 25.8,14.5 25.8,14.5 25.8,14.5 25.8,14.5 25.8,14.4 25.8,14.4 25.8,14.3 25.8,14.2 
			25.9,14.2 25.9,14.1 25.9,14 25.9,14 26,13.9 26,13.9 26,13.8 26,13.8 26.1,13.8 26.1,13.8 26.1,13.8 26,13.8 26,13.7 26,13.7 
			26,13.7 26,13.7 25.9,13.7 25.9,13.7 25.8,13.7 25.8,13.8 25.7,13.8 25.6,13.8 25.6,13.8 25.5,13.8 25.4,13.9 25.4,13.9 
			25.3,13.9 25.3,14 25.3,14 25.2,14.1 25.2,14.1 25.1,14.2 25.1,14.2 25,14.3 25.1,13.8 24.3,13.8 23.8,16.8 23.8,16.8 23.8,16.8 
					"/>
		<polyline class="st4" points="23.8,16.8 24.6,16.8 24.6,16.8 24.9,15.2 24.9,15.2 24.9,15.1 24.9,15.1 24.9,15 24.9,15 25,14.9 
			25,14.9 25,14.8 25.1,14.8 25.1,14.7 25.2,14.7 25.2,14.6 25.3,14.6 25.4,14.6 25.5,14.6 25.6,14.5 25.7,14.5 25.7,14.5 
			25.7,14.5 25.7,14.5 25.7,14.5 25.7,14.5 25.7,14.5 25.7,14.5 25.8,14.5 25.8,14.5 25.8,14.5 25.8,14.5 25.8,14.5 25.8,14.4 
			25.8,14.4 25.8,14.3 25.8,14.2 25.9,14.2 25.9,14.1 25.9,14.1 25.9,14 25.9,14 26,13.9 26,13.9 26,13.8 26,13.8 26.1,13.8 
			26.1,13.8 26.1,13.8 26.1,13.8 26,13.8 26,13.7 26,13.7 26,13.7 26,13.7 25.9,13.7 25.9,13.7 25.9,13.7 25.8,13.7 25.8,13.8 
			25.7,13.8 25.6,13.8 25.6,13.8 25.5,13.8 25.4,13.9 25.4,13.9 25.3,13.9 25.3,14 25.3,14 25.2,14.1 25.2,14.1 25.1,14.2 
			25.1,14.2 25,14.3 25.1,13.8 24.3,13.8 23.8,16.8 23.8,16.8 		"/>
		<polygon class="st1" points="36.3,19.8 36.3,19.8 36.3,19.7 36.4,19.7 36.4,19.6 36.5,19.6 36.5,19.5 36.6,19.5 36.7,19.5 
			36.8,19.5 36.8,19.5 36.9,19.6 37,19.6 37,19.7 37.1,19.7 37.1,19.8 37.1,19.8 37,19.8 37,19.8 37,19.7 36.9,19.7 36.9,19.6 
			36.8,19.6 36.8,19.6 36.7,19.6 36.6,19.6 36.6,19.6 36.5,19.6 36.5,19.7 36.4,19.7 36.4,19.8 36.4,19.8 36.3,19.8 36.3,19.8 		"/>
		<polygon class="st1" points="36.6,19.8 36.6,19.7 36.7,19.7 36.7,19.7 36.8,19.7 36.8,19.7 36.8,19.7 36.8,19.8 36.8,19.8 
			36.8,19.8 36.8,19.8 36.8,19.8 36.8,19.8 36.8,19.8 36.8,19.8 36.8,19.8 36.8,19.8 36.8,19.8 36.7,19.8 36.7,19.8 36.7,19.8 
			36.6,19.8 36.6,19.8 36.6,19.8 36.6,19.8 		"/>
		<polygon class="st1" points="36.3,19.9 36.3,19.8 36.4,19.8 36.4,19.8 36.4,19.9 36.3,19.9 36.3,19.9 		"/>
		<polygon class="st1" points="36.6,19.9 36.6,19.8 36.6,19.8 36.6,19.9 36.7,19.9 36.7,19.9 36.7,19.9 36.8,19.9 36.8,19.9 
			36.8,19.8 36.8,19.8 36.8,19.8 36.8,19.8 36.8,19.8 36.8,19.8 36.8,19.8 36.8,19.9 36.8,19.9 36.8,19.9 36.6,19.9 36.6,19.9 		"/>
		<polygon class="st1" points="37,19.9 37,19.8 37,19.8 37.1,19.8 37.1,19.9 37,19.9 37,19.9 		"/>
		<polygon class="st1" points="36.3,19.9 36.3,19.9 36.3,20 36.3,20 36.4,20.1 36.4,20.2 36.5,20.2 36.5,20.3 36.6,20.3 36.7,20.3 
			36.8,20.3 36.8,20.3 36.9,20.2 37,20.2 37,20.1 37.1,20 37.1,20 37.1,19.9 37.1,19.9 37,19.9 37,19.9 37,20 37,20 37,20.1 
			36.9,20.1 36.9,20.2 36.8,20.2 36.8,20.2 36.7,20.2 36.6,20.2 36.6,20.2 36.5,20.2 36.5,20.1 36.4,20.1 36.4,20 36.4,20 
			36.4,19.9 36.4,19.9 36.3,19.9 36.3,19.9 		"/>
		<polygon class="st1" points="36.6,19.9 36.6,20 36.6,20 36.6,19.9 36.7,19.9 36.8,20 36.8,20 36.7,19.9 36.8,19.9 36.8,19.9 
			36.8,19.9 36.8,19.9 36.8,19.9 36.6,19.9 36.6,19.9 		"/>
		<path class="st3" d="M23.9,14.7l0-0.2l0-0.2l-0.1-0.1l-0.1-0.1L23.6,14l-0.1-0.1l-0.1-0.1l-0.1-0.1l-0.1,0l-0.1,0l-0.1,0l-0.1,0
			l-0.1,0l-0.2,0l-0.2,0l-0.2,0.1l-0.2,0.1L21.8,14l-0.1,0.1l-0.1,0.1l-0.1,0.1l-0.1,0.1l-0.1,0.1l-0.1,0.1l0,0.1l0,0.1l0,0.1l0,0.1
			l0,0.1l0,0.2l0,0.2l0,0.2l0,0.2l0.1,0.2l0.1,0.1l0.1,0.1l0.1,0.1l0.1,0.1l0.1,0.1l0.1,0.1l0.1,0l0.1,0l0.1,0l0.1,0l0.1,0h0.1
			l0.1,0h0.1l0.1,0l0.1,0l0.1,0l0.1,0l0.1,0l0,0l0,0l0,0l0,0l0,0l0,0l0,0l0,0l0.1-0.7l-0.1,0l-0.1,0l-0.1,0l-0.1,0l-0.1,0l-0.1,0
			l-0.1,0l-0.1,0l-0.1,0l-0.1,0h-0.1l-0.1,0l-0.1,0l-0.1,0l-0.1,0l-0.1,0l-0.1,0l-0.1,0l-0.1,0l-0.1,0l-0.1,0l0,0l0,0l0,0l0,0l0-0.1
			l0-0.1l0-0.1l0-0.1l0-0.1l0,0l0,0h1.8l0-0.2l0-0.2l0-0.2L23.9,14.7z M23.1,14.9h-1l0,0l0,0l0,0l0-0.1l0-0.1l0-0.1l0-0.1l0,0l0,0
			l0,0l0,0l0,0l0,0l0,0l0,0l0,0l0,0l0.1,0l0.1,0l0.1,0l0,0l0,0l0,0l0,0l0,0l0,0l0,0l0,0l0,0l0,0l0,0.1l0,0.1l0,0.1L23.1,14.9
			L23.1,14.9z"/>
	</g>
</g>
</svg>
