<!-- Generator: Adobe Illustrator 24.0.1, SVG Export Plug-In  -->
<svg version="1.1" xmlns="http://www.w3.org/2000/svg" xmlns:xlink="http://www.w3.org/1999/xlink" x="0px" y="0px" width="47px"
	 height="29.4px" viewBox="0 0 47 29.4" style="enable-background:new 0 0 47 29.4;" xml:space="preserve">
<style type="text/css">
	.st0{fill:#F9F9F9;}
	.st1{fill:#0066B2;}
	.st2{fill:#F9A533;}
</style>
<defs>
</defs>
<g>
	<path class="st0" d="M47,27.8c0,0.9-0.7,1.6-1.6,1.6H1.6c-0.9,0-1.6-0.7-1.6-1.6V1.6C0,0.7,0.7,0,1.6,0h43.9C46.3,0,47,0.7,47,1.6
		V27.8z"/>
	<g>
		<g>
			<polygon class="st1" points="21.6,19.1 19.4,19.1 20.8,10.3 23.1,10.3 			"/>
			<path class="st1" d="M17.4,10.3l-2.2,6.1L15,15.1v0l-0.8-4c0,0-0.1-0.8-1.1-0.8H9.5l0,0.1c0,0,1.1,0.2,2.4,1l2,7.7h2.4l3.7-8.8
				H17.4z"/>
			<path class="st1" d="M35.5,19.1h2.1l-1.8-8.8h-1.8c-0.9,0-1.1,0.7-1.1,0.7l-3.4,8.2h2.4l0.5-1.3h2.9L35.5,19.1z M33,16l1.2-3.3
				l0.7,3.3H33z"/>
			<path class="st1" d="M29.6,12.4l0.3-1.9c0,0-1-0.4-2.1-0.4c-1.1,0-3.8,0.5-3.8,2.9c0,2.3,3.2,2.3,3.2,3.5c0,1.2-2.9,1-3.8,0.2
				l-0.3,2c0,0,1,0.5,2.6,0.5c1.6,0,3.9-0.8,3.9-3c0-2.3-3.2-2.5-3.2-3.5C26.4,11.7,28.6,11.9,29.6,12.4z"/>
		</g>
		<path class="st2" d="M15,15.1l-0.8-4c0,0-0.1-0.8-1.1-0.8H9.5l0,0.1c0,0,1.7,0.4,3.4,1.7C14.4,13.4,15,15.1,15,15.1z"/>
	</g>
</g>
</svg>
