<svg xmlns="http://www.w3.org/2000/svg" viewBox="0 0 71.54 71.54"><defs><style>.cls-1,.cls-2,.cls-3{fill:none;stroke:#000;}.cls-1{stroke-miterlimit:10;}.cls-2,.cls-3{stroke-linecap:round;}.cls-2{stroke-linejoin:round;}.cls-3{stroke-linejoin:bevel;}</style></defs><g id="Notes"><path class="cls-1" d="M35.36,21.11a8.7,8.7,0,0,1,2.55.38c.17-.22.35-.44.51-.66-.8-4.14-1.88-6.67-3.06-6.67s-2.25,2.53-3,6.67c.16.22.34.44.51.66A8.68,8.68,0,0,1,35.36,21.11Z"/><path class="cls-1" d="M22.86,39.28c0,.09,0,.17,0,.26,0-.11,0-.21,0-.32S22.86,39.26,22.86,39.28Z"/><path class="cls-1" d="M47.86,39.28v-.06c0,.11,0,.21,0,.32C47.85,39.45,47.86,39.37,47.86,39.28Z"/><path class="cls-2" d="M38.58,21.74c.24.09.47.18.7.29a7.43,7.43,0,0,1,4.88,4.3,19.12,19.12,0,0,1,2,3.67l.07-.12a44.24,44.24,0,0,0-6.43-11c-.41.66-.86,1.33-1.35,2C38.47,21.12,38.53,21.43,38.58,21.74Z"/><path class="cls-2" d="M26.57,26.33A7.43,7.43,0,0,1,31.45,22c.23-.11.46-.2.7-.29.05-.31.11-.62.16-.91-.49-.67-.94-1.34-1.35-2a44.24,44.24,0,0,0-6.43,11.05.75.75,0,0,0,.07.12A19.12,19.12,0,0,1,26.57,26.33Z"/><path class="cls-2" d="M35.36,14.16c1.18,0,2.26,2.53,3.06,6.67.49-.67.94-1.34,1.35-2q-2-2.53-4.37-5.18l0,0,0,0Q32.92,16.29,31,18.83c.41.66.86,1.33,1.35,2C33.11,16.69,34.19,14.16,35.36,14.16Z"/><path class="cls-2" d="M32.31,20.83c-.05.29-.11.6-.16.91.22-.09.44-.18.67-.25C32.65,21.27,32.47,21.05,32.31,20.83Z"/><path class="cls-2" d="M38.58,21.74c0-.31-.11-.62-.16-.91-.16.22-.34.44-.51.66C38.14,21.56,38.36,21.65,38.58,21.74Z"/><path class="cls-2" d="M32.09,56.47a12.57,12.57,0,0,1-5.81-5"/><path class="cls-2" d="M32.82,21.49l.25.32c.69.89,1.43,1.79,2.28,2.71v0l0,0c.85-.92,1.59-1.82,2.28-2.71l.25-.32"/><path class="cls-2" d="M39.37,29.65a38.36,38.36,0,0,0-4-5.09l0,0v0a38.36,38.36,0,0,0-4,5.09"/><path class="cls-2" d="M44.63,45.81l0,0,.21-.19a8.71,8.71,0,0,0,3-6.12c0-.11,0-.21,0-.32v0A9,9,0,0,1,44.63,45.81Z"/><path class="cls-2" d="M26.08,45.84l0,0a9,9,0,0,1-3.23-6.62v0c0,.11,0,.21,0,.32a8.74,8.74,0,0,0,3,6.12Z"/><path class="cls-2" d="M35.38,54.05l0,0v0c-.85.92-1.59,1.81-2.28,2.7l0,0a8.61,8.61,0,0,0,4.65,0l0,0C37,55.86,36.23,55,35.38,54.05Z"/><path class="cls-2" d="M39.28,22c-.23-.11-.46-.2-.7-.29l0,.15A5,5,0,0,1,39.28,22Z"/><path class="cls-2" d="M44.86,29.73v2.5c.37-.74.8-1.48,1.27-2.23a19.12,19.12,0,0,0-2-3.67A8.47,8.47,0,0,1,44.86,29.73Z"/><path class="cls-2" d="M25.86,46.33a22.47,22.47,0,0,1-1.18,2.1,18.8,18.8,0,0,0,1.6,3,8.36,8.36,0,0,1-.42-2.62Z"/><path class="cls-2" d="M32.15,21.74c-.24.09-.47.18-.7.29a5,5,0,0,1,.67-.14Z"/><path class="cls-2" d="M25.86,29.73a8.48,8.48,0,0,1,.71-3.4,19.12,19.12,0,0,0-2,3.67,24.08,24.08,0,0,1,1.26,2.23Z"/><path class="cls-2" d="M44.86,48.83a8.36,8.36,0,0,1-.41,2.62,18.8,18.8,0,0,0,1.6-3c-.44-.71-.85-1.41-1.19-2.1Z"/><path class="cls-2" d="M47.86,39.22v0Z"/><path class="cls-2" d="M44.86,46.33c.34.69.75,1.39,1.19,2.1a23.91,23.91,0,0,0,1.8-8.89,8.71,8.71,0,0,1-3,6.12Z"/><path class="cls-2" d="M44.86,32.63a8.86,8.86,0,0,1,3,6.48A24,24,0,0,0,46.13,30c-.47.75-.9,1.49-1.27,2.23Z"/><path class="cls-2" d="M25.86,32.63v-.4A24.08,24.08,0,0,0,24.6,30a24,24,0,0,0-1.74,9.11A8.89,8.89,0,0,1,25.86,32.63Z"/><path class="cls-3" d="M22.86,39.11s0,.07,0,.11v0S22.86,39.14,22.86,39.11Z"/><path class="cls-2" d="M25.86,45.66a8.74,8.74,0,0,1-3-6.12,23.91,23.91,0,0,0,1.8,8.89,22.47,22.47,0,0,0,1.18-2.1Z"/><path class="cls-2" d="M37.69,56.79l.24-.06-.27,0Z"/><path class="cls-2" d="M32.8,56.73l.24.06,0,0Z"/><path class="cls-2" d="M33.07,21.81l-.25-.32c-.23.07-.45.16-.67.25l0,.15A5.89,5.89,0,0,1,33.07,21.81Z"/><path class="cls-2" d="M37.66,21.81a5.89,5.89,0,0,1,1,.08l0-.15c-.22-.09-.44-.18-.67-.25Z"/><path class="cls-2" d="M32.09,56.47c-.23-1.32-.42-2.79-.59-4.36h0c-.12-1.1-.22-2.24-.31-3.44a.91.91,0,0,0-.11-.16l-.13,0c-.34-.1-.67-.22-1-.34L29.53,48c-.21-.08-.41-.18-.61-.28a12.35,12.35,0,0,1-2.84-1.83c-.08.17-.13.33-.22.49v2.5a8.36,8.36,0,0,0,.42,2.62A12.57,12.57,0,0,0,32.09,56.47Z"/><path class="cls-2" d="M44.86,46.33c-.08-.16-.13-.32-.21-.48a12.66,12.66,0,0,1-2.84,1.82c-.2.1-.4.2-.61.28l-.43.17c-.32.12-.65.24-1,.34l-.14,0c0,.05-.07.1-.1.16-.09,1.2-.2,2.34-.31,3.44h0c-.17,1.57-.37,3-.59,4.36a12.57,12.57,0,0,0,5.81-5,8.36,8.36,0,0,0,.41-2.62Z"/><path class="cls-2" d="M31.08,48.51a.91.91,0,0,1,.11.16v-.14Z"/><path class="cls-2" d="M39.54,48.67c0-.06.07-.11.1-.16l-.09,0Z"/><path class="cls-2" d="M44.86,32.63v-.4l-.12.28Z"/><path class="cls-2" d="M44.86,45.66l-.21.19c.08.16.13.32.21.48Z"/><path class="cls-2" d="M25.86,46.33c.09-.16.14-.32.22-.49l-.22-.18Z"/><path class="cls-2" d="M25.86,32.23v.4l.13-.12C26,32.42,25.91,32.32,25.86,32.23Z"/><path class="cls-2" d="M35.38,54l0,0,0,0c.85.92,1.59,1.81,2.28,2.7l.27,0c.24-.07.48-.17.71-.26.22-1.32.42-2.79.59-4.36H37C36.5,52.74,36,53.37,35.38,54Z"/><path class="cls-2" d="M39.23,52.11c.11-1.1.22-2.24.31-3.44A35.38,35.38,0,0,1,37,52.11Z"/><path class="cls-2" d="M35.36,24.54l0,0a38.36,38.36,0,0,1,4,5.09l.15,0c-.21-2.91-.52-5.56-.91-7.8a5.89,5.89,0,0,0-1-.08c-.69.89-1.43,1.79-2.28,2.71Z"/><path class="cls-3" d="M35.35,54.05v0c-.59-.63-1.12-1.26-1.63-1.89H31.5c.17,1.57.36,3,.59,4.36.23.09.47.19.71.26l.27,0C33.76,55.86,34.5,55,35.35,54.05Z"/><path class="cls-2" d="M31.19,48.67c.09,1.2.19,2.34.31,3.44h2.22A35.38,35.38,0,0,1,31.19,48.67Z"/><path class="cls-2" d="M35.35,24.56v0c-.85-.92-1.59-1.82-2.28-2.71a5.89,5.89,0,0,0-1,.08c-.39,2.24-.7,4.89-.91,7.8l.15,0A38.36,38.36,0,0,1,35.35,24.56Z"/><path class="cls-2" d="M31,48.46l.13,0h0Z"/><path class="cls-2" d="M30,48.12,29.53,48Z"/><path class="cls-2" d="M26.08,45.84a12.35,12.35,0,0,0,2.84,1.83,12.65,12.65,0,0,1-2.82-1.86Z"/><path class="cls-2" d="M41.2,48l-.43.17Z"/><path class="cls-2" d="M44.65,45.85l0,0a12.65,12.65,0,0,1-2.82,1.86A12.66,12.66,0,0,0,44.65,45.85Z"/><path class="cls-2" d="M39.64,48.51l.14,0-.13,0Z"/><path class="cls-2" d="M44.63,45.81a9,9,0,0,0,3.23-6.62,8.69,8.69,0,0,0-3-6.29l-.21-.18A14.86,14.86,0,0,0,44.63,45.81Z"/><path class="cls-2" d="M31.36,29.65a2.2,2.2,0,0,0-.17.25V30l-.1,0c-4,6.34-4,12.1,0,18.44a15.36,15.36,0,0,0,8.57,0c4-6.34,4-12.1,0-18.44l-.09,0V29.9a2.2,2.2,0,0,0-.17-.25"/><path class="cls-2" d="M26.08,32.72l-.22.18a8.72,8.72,0,0,0-3,6.29,9,9,0,0,0,3.23,6.62A14.86,14.86,0,0,0,26.08,32.72Z"/><path class="cls-2" d="M44.86,32.63v.27a8.69,8.69,0,0,1,3,6.29v-.08A8.86,8.86,0,0,0,44.86,32.63Z"/><path class="cls-2" d="M25.86,32.9v-.27a8.89,8.89,0,0,0-3,6.48s0,.06,0,.08A8.72,8.72,0,0,1,25.86,32.9Z"/><path class="cls-2" d="M29.53,48c-.21-.08-.41-.18-.61-.28C29.12,47.77,29.32,47.87,29.53,48Z"/><path class="cls-2" d="M31,48.46c-.34-.1-.67-.22-1-.34C30.28,48.24,30.61,48.36,31,48.46Z"/><path class="cls-2" d="M31.08,30.06l.11-.16c0-.07,0-.14,0-.21A13.16,13.16,0,0,0,26,32.51l.09.21A12.84,12.84,0,0,1,31.08,30.06Z"/><path class="cls-2" d="M39.64,30.06a12.89,12.89,0,0,1,5,2.66l.09-.21a13.23,13.23,0,0,0-5.22-2.82c0,.07,0,.14,0,.21S39.61,30,39.64,30.06Z"/><path class="cls-2" d="M41.81,47.67c-.2.1-.4.2-.61.28C41.41,47.87,41.61,47.77,41.81,47.67Z"/><path class="cls-2" d="M40.77,48.12c-.32.12-.65.24-1,.34C40.12,48.36,40.45,48.24,40.77,48.12Z"/><path class="cls-2" d="M39.55,30l.09,0c0-.06-.07-.11-.1-.16Z"/><path class="cls-2" d="M31.19,29.9l-.11.16.1,0Z"/><path class="cls-2" d="M44.65,32.72l.21.18v-.27l-.12-.12Z"/><path class="cls-2" d="M26,32.51l-.13.12v.27l.22-.18Z"/><path class="cls-2" d="M39.54,29.9c0-.07,0-.14,0-.21l-.15,0A2.2,2.2,0,0,1,39.54,29.9Z"/><path class="cls-2" d="M31.36,29.65l-.15,0c0,.07,0,.14,0,.21A2.2,2.2,0,0,1,31.36,29.65Z"/><path class="cls-2" d="M31.08,30.06a12.84,12.84,0,0,0-5,2.66,14.86,14.86,0,0,1,0,13.09,12.65,12.65,0,0,0,2.82,1.86c.2.1.4.2.61.28l.43.17c.32.12.65.24,1,.34l.13,0C27.12,42.16,27.12,36.4,31.08,30.06Z"/><path class="cls-2" d="M44.65,32.72a12.89,12.89,0,0,0-5-2.66c4,6.34,4,12.1,0,18.44l.13,0c.34-.1.67-.22,1-.34L41.2,48c.21-.08.41-.18.61-.28a12.65,12.65,0,0,0,2.82-1.86A14.86,14.86,0,0,1,44.65,32.72Z"/><path class="cls-2" d="M47.86,39.11c0,10-5.59,18-12.5,18s-12.5-8-12.5-18"/></g></svg>