<svg xmlns="http://www.w3.org/2000/svg" viewBox="0 0 71.54 71.54"><defs><style>.cls-1,.cls-2{fill:none;stroke:#000;}.cls-1{stroke-linecap:round;stroke-linejoin:bevel;}.cls-2{stroke-miterlimit:10;}</style></defs><g id="Notes"><path class="cls-1" d="M38.07,19.52a7.26,7.26,0,0,1,6.25,7.18V29a20.38,20.38,0,0,1,1.34-2.15,39.81,39.81,0,0,0-6.44-10.11c-.4.6-.86,1.21-1.35,1.82C37.94,18.87,38,19.19,38.07,19.52Z"/><path class="cls-1" d="M31.57,51.37a7.25,7.25,0,0,1-6.25-7.18V41.91A22.65,22.65,0,0,1,24,44.06a40,40,0,0,0,6.44,10.11c.4-.6.86-1.21,1.35-1.83C31.7,52,31.64,51.7,31.57,51.37Z"/><path class="cls-1" d="M25.32,26.7a7.26,7.26,0,0,1,6.25-7.18c.07-.33.13-.65.2-1-.49-.61-.95-1.22-1.35-1.82A39.81,39.81,0,0,0,24,26.84,20.38,20.38,0,0,1,25.32,29Z"/><path class="cls-1" d="M44.32,44.19a7.25,7.25,0,0,1-6.25,7.18c-.07.33-.13.66-.2,1,.49.62,1,1.23,1.35,1.83a40,40,0,0,0,6.44-10.11,22.65,22.65,0,0,1-1.34-2.15Z"/><path class="cls-1" d="M45.66,26.84A20.38,20.38,0,0,0,44.32,29v.62a7.67,7.67,0,0,1,3,5.84,7.67,7.67,0,0,1-3,5.84v.62a22.65,22.65,0,0,0,1.34,2.15A21.41,21.41,0,0,0,45.66,26.84Z"/><path class="cls-1" d="M25.32,41.29a7.67,7.67,0,0,1-3-5.84,7.67,7.67,0,0,1,3-5.84V29A20.38,20.38,0,0,0,24,26.84a21.41,21.41,0,0,0,0,17.22,22.65,22.65,0,0,0,1.34-2.15Z"/><path class="cls-1" d="M34.82,12.45c1.18,0,2.25,2.32,3,6.1.49-.61,1-1.22,1.35-1.82-1.3-1.56-2.75-3.14-4.37-4.75l0,0,0,0c-1.62,1.61-3.07,3.19-4.37,4.75.4.6.86,1.21,1.35,1.82C32.57,14.77,33.64,12.45,34.82,12.45Z"/><path class="cls-2" d="M34.82,58.45c-1.18,0-2.25-2.32-3.05-6.11-.49.62-.95,1.23-1.35,1.83,1.3,1.55,2.75,3.13,4.37,4.74l0,0,0,0c1.62-1.61,3.07-3.19,4.37-4.74-.4-.6-.86-1.21-1.35-1.83C37.07,56.13,36,58.45,34.82,58.45Z"/><path class="cls-1" d="M37.87,52.34c.07-.31.13-.64.2-1a7.45,7.45,0,0,1-1,.07C37.37,51.74,37.64,52,37.87,52.34Z"/><path class="cls-1" d="M31.57,51.37c.07.33.13.66.2,1,.23-.3.5-.6.75-.9A7.59,7.59,0,0,1,31.57,51.37Z"/><path class="cls-1" d="M31.77,18.55c-.07.32-.13.64-.2,1a7.59,7.59,0,0,1,1-.07C32.27,19.15,32,18.85,31.77,18.55Z"/><path class="cls-1" d="M38.07,19.52c-.07-.33-.13-.65-.2-1-.23.3-.5.6-.75.9A7.45,7.45,0,0,1,38.07,19.52Z"/><path class="cls-1" d="M30.54,43.89a13.62,13.62,0,0,1-5-2.43c-.07.15-.13.3-.21.45v2.28a7.25,7.25,0,0,0,6.25,7.18A69.86,69.86,0,0,1,30.65,44Z"/><path class="cls-1" d="M30.54,27l.11-.15a70.55,70.55,0,0,1,.92-7.33,7.26,7.26,0,0,0-6.25,7.18V29c.08.15.14.3.21.45A13.48,13.48,0,0,1,30.54,27Z"/><path class="cls-1" d="M38.07,19.52A70.55,70.55,0,0,1,39,26.85l.11.15a13.48,13.48,0,0,1,5,2.44c.07-.15.13-.3.21-.45V26.7A7.26,7.26,0,0,0,38.07,19.52Z"/><path class="cls-1" d="M39.1,43.89,39,44a69.86,69.86,0,0,1-.92,7.33,7.25,7.25,0,0,0,6.25-7.18V41.91c-.08-.15-.14-.3-.21-.45A13.62,13.62,0,0,1,39.1,43.89Z"/><path class="cls-1" d="M30.54,43.89l.11.15v-.12Z"/><path class="cls-1" d="M39.1,27,39,26.85V27Z"/><path class="cls-1" d="M39,44l.11-.15-.1,0Z"/><path class="cls-1" d="M30.65,26.85l-.11.15.1,0Z"/><path class="cls-1" d="M44.32,29.61V29c-.08.15-.14.3-.21.45Z"/><path class="cls-1" d="M44.32,41.91v-.62l-.21.17C44.18,41.61,44.24,41.76,44.32,41.91Z"/><path class="cls-1" d="M25.32,41.29v.62c.08-.15.14-.3.21-.45Z"/><path class="cls-1" d="M25.32,29v.62l.21-.17C25.46,29.29,25.4,29.14,25.32,29Z"/><path class="cls-1" d="M34.84,48.93l0,0,0,0c.84.84,1.58,1.66,2.28,2.47a7.45,7.45,0,0,0,1-.07A69.86,69.86,0,0,0,39,44,36.17,36.17,0,0,1,34.84,48.93Z"/><path class="cls-1" d="M34.84,21.93l0,0,0,0A35.53,35.53,0,0,1,39,26.85a70.55,70.55,0,0,0-.92-7.33,7.45,7.45,0,0,0-1-.07C36.42,20.26,35.68,21.09,34.84,21.93Z"/><path class="cls-1" d="M34.8,49l0,0,0,0A36.17,36.17,0,0,1,30.65,44a69.86,69.86,0,0,0,.92,7.33,7.59,7.59,0,0,0,1,.07C33.22,50.63,34,49.81,34.8,49Z"/><path class="cls-1" d="M34.8,22l0,0,0,0c-.84-.84-1.58-1.67-2.28-2.48a7.59,7.59,0,0,0-1,.07,70.55,70.55,0,0,0-.92,7.33A35.53,35.53,0,0,1,34.8,22Z"/><path class="cls-1" d="M30.54,27a13.48,13.48,0,0,0-5,2.44,12.57,12.57,0,0,1,0,12,13.62,13.62,0,0,0,5,2.43C26.57,38.09,26.57,32.81,30.54,27Z"/><path class="cls-1" d="M39.1,43.89a13.62,13.62,0,0,0,5-2.43,12.57,12.57,0,0,1,0-12,13.48,13.48,0,0,0-5-2.44C43.07,32.81,43.07,38.09,39.1,43.89Z"/></g></svg>