<svg xmlns="http://www.w3.org/2000/svg" viewBox="0 0 71.54 71.54"><defs><style>.cls-1{fill:none;stroke:#000;stroke-miterlimit:10;}</style></defs><g id="Notes"><path class="cls-1" d="M30.31,23.39l.5-.5a17.79,17.79,0,0,1-2-3.69h0a17.65,17.65,0,0,1,1.11,4.19Z"/><path class="cls-1" d="M48,30.71l.49.5a17.83,17.83,0,0,1,3.42-1.93,17.85,17.85,0,0,1-3.91,1Z"/><path class="cls-1" d="M40.67,48.39l-.5.5a18.05,18.05,0,0,1,2,3.69h0a17.52,17.52,0,0,1-1.11-4.19Z"/><path class="cls-1" d="M22.5,40.58a17.78,17.78,0,0,1-3.42,1.92,17.83,17.83,0,0,1,3.91-1v-.43Z"/><path class="cls-1" d="M48,41.07v.7A17.76,17.76,0,0,1,52.05,43h0a18.22,18.22,0,0,1-3.75-2.19Z"/><path class="cls-1" d="M52.18,29.18l-.28.1a17.83,17.83,0,0,0-3.42,1.93l4.69,4.68L48.3,40.76A18.22,18.22,0,0,0,52.05,43a17.94,17.94,0,0,0,.13-13.77Z"/><path class="cls-1" d="M48,48.39H41.1a17.52,17.52,0,0,0,1.11,4.19A18,18,0,0,0,52.05,43,17.76,17.76,0,0,0,48,41.77Z"/><path class="cls-1" d="M41.36,23.39a17.54,17.54,0,0,1,1.06-3.77,18,18,0,0,1-2.05,3.47l.3.3Z"/><path class="cls-1" d="M35.49,18.21l4.88,4.88a18,18,0,0,0,2.05-3.47l.12-.29a17.94,17.94,0,0,0-13.77-.13,17.79,17.79,0,0,0,2,3.69Z"/><path class="cls-1" d="M42.67,19.05c0,.09-.09.18-.13.28h0Z"/><path class="cls-1" d="M48,23.39v6.9a17.85,17.85,0,0,0,3.91-1l.28-.11a18.07,18.07,0,0,0-9.63-9.84c0,.1-.09.19-.13.29a17.54,17.54,0,0,0-1.06,3.77Z"/><path class="cls-1" d="M42.54,19.33l-.12.29c0-.1.09-.19.13-.29Z"/><path class="cls-1" d="M52.48,29.06l-.3.11h0Z"/><path class="cls-1" d="M52.18,29.18h0l-.28.11Z"/><path class="cls-1" d="M29.62,48.39a17.79,17.79,0,0,1-1.06,3.78,18.43,18.43,0,0,1,2.06-3.48l-.31-.3Z"/><path class="cls-1" d="M35.49,53.57l-4.87-4.88a18.43,18.43,0,0,0-2.06,3.48l-.12.29a18,18,0,0,0,13.77.12,18.05,18.05,0,0,0-2-3.69Z"/><path class="cls-1" d="M29.62,48.39H23V41.5a17.83,17.83,0,0,0-3.91,1l-.28.12a18.08,18.08,0,0,0,9.63,9.83c0-.1.09-.19.13-.28A17.79,17.79,0,0,0,29.62,48.39Z"/><path class="cls-1" d="M28.31,52.74c0-.1.09-.19.13-.28h0Z"/><path class="cls-1" d="M28.43,52.45h0l.12-.29C28.52,52.26,28.47,52.35,28.43,52.45Z"/><path class="cls-1" d="M23,30.71V30a17.9,17.9,0,0,1-4.06-1.18h0A17.74,17.74,0,0,1,22.68,31Z"/><path class="cls-1" d="M18.93,28.83A17.9,17.9,0,0,0,23,30V23.39h6.89a17.65,17.65,0,0,0-1.11-4.19A18.07,18.07,0,0,0,18.93,28.83Z"/><path class="cls-1" d="M22.5,40.58l-4.69-4.69L22.68,31a17.74,17.74,0,0,0-3.75-2.18A17.91,17.91,0,0,0,18.8,42.6l.28-.1A17.78,17.78,0,0,0,22.5,40.58Z"/><path class="cls-1" d="M18.5,42.72l.3-.1v0Z"/><path class="cls-1" d="M18.8,42.6v0l.28-.12Z"/><path class="cls-1" d="M30.81,22.89l-.5.5h.87C31.05,23.23,30.93,23.06,30.81,22.89Z"/><path class="cls-1" d="M48,31.57l.49-.36-.49-.5Z"/><path class="cls-1" d="M40.17,48.89l.5-.5H39.8Z"/><path class="cls-1" d="M23,40.21l-.49.37.49.49Z"/><path class="cls-1" d="M48,41.07l.31-.31L48,40.53Z"/><path class="cls-1" d="M40.67,23.39l-.3-.3-.23.3Z"/><path class="cls-1" d="M30.31,48.39l.31.3.22-.3Z"/><path class="cls-1" d="M23,30.71l-.31.31.31.23Z"/><path class="cls-1" d="M30.31,23.39h-.43c0,.13,0,.25.05.38Z"/><path class="cls-1" d="M48,30.71v-.42l-.37.05Z"/><path class="cls-1" d="M40.67,48.39h.43c0-.12,0-.25-.05-.38Z"/><path class="cls-1" d="M23,41.07v.43l.37-.06Z"/><path class="cls-1" d="M48,41.77v-.7l-.61.61Z"/><path class="cls-1" d="M41.36,23.39h-.69l.6.61Z"/><path class="cls-1" d="M29.71,47.79l-.09.6h.69Z"/><path class="cls-1" d="M23.6,30.1c-.2,0-.41-.05-.61-.09v.7Z"/><path class="cls-1" d="M29.51,41.77a17.88,17.88,0,0,1,5.91,2.51,17.75,17.75,0,0,1,5.95-2.41A17.85,17.85,0,0,1,43.87,36,17.94,17.94,0,0,1,41.47,30a17.85,17.85,0,0,1-5.91-2.5,17.94,17.94,0,0,1-6,2.4,17.85,17.85,0,0,1-2.5,5.91A17.94,17.94,0,0,1,29.51,41.77Z"/><path class="cls-1" d="M29.61,29.91a17.94,17.94,0,0,0,6-2.4,18.72,18.72,0,0,1-2.75-2.24,18,18,0,0,1-1.63-1.88h-.87l-.38.38A17.87,17.87,0,0,1,29.61,29.91Z"/><path class="cls-1" d="M41.47,30A17.94,17.94,0,0,0,43.87,36a18.31,18.31,0,0,1,2.25-2.77A19,19,0,0,1,48,31.57v-.86l-.37-.37A17.93,17.93,0,0,1,41.47,30Z"/><path class="cls-1" d="M41.37,41.87a17.75,17.75,0,0,0-5.95,2.41,17.55,17.55,0,0,1,2.75,2.23,19.07,19.07,0,0,1,1.63,1.88h.87l.38-.38A17.88,17.88,0,0,1,41.37,41.87Z"/><path class="cls-1" d="M29.51,41.77a17.94,17.94,0,0,0-2.4-6,17.83,17.83,0,0,1-2.25,2.77A16.69,16.69,0,0,1,23,40.21v.86l.37.37A18.18,18.18,0,0,1,29.51,41.77Z"/><path class="cls-1" d="M43.87,36a17.85,17.85,0,0,0-2.5,5.91,17.09,17.09,0,0,1,6-.19l.61-.61v-.54A18.15,18.15,0,0,1,43.87,36Z"/><path class="cls-1" d="M41.1,26.47A18.3,18.3,0,0,1,41.27,24l-.6-.61h-.53a18,18,0,0,1-4.58,4.12A17.85,17.85,0,0,0,41.47,30,17.21,17.21,0,0,1,41.1,26.47Z"/><path class="cls-1" d="M29.88,45.31a18.56,18.56,0,0,1-.17,2.48l.6.6h.53a18.14,18.14,0,0,1,4.58-4.11,17.88,17.88,0,0,0-5.91-2.51A17.29,17.29,0,0,1,29.88,45.31Z"/><path class="cls-1" d="M27.11,35.82a17.85,17.85,0,0,0,2.5-5.91,18.61,18.61,0,0,1-3.53.37,18.56,18.56,0,0,1-2.48-.18l-.61.61v.54A18.15,18.15,0,0,1,27.11,35.82Z"/></g></svg>