<svg xmlns="http://www.w3.org/2000/svg" viewBox="0 0 71.54 71.54"><defs><style>.cls-1,.cls-2{fill:none;stroke:#000;}.cls-1{stroke-miterlimit:10;}.cls-2{stroke-linejoin:bevel;}</style></defs><g id="Notes"><rect class="cls-1" x="25.14" y="23.11" width="23" height="23" rx="9"/><polygon class="cls-2" points="18.64 16.61 36.64 23.11 54.64 16.61 48.14 34.61 54.64 52.61 36.64 46.11 18.64 52.61 25.14 34.61 18.64 16.61"/><rect class="cls-1" x="21.64" y="19.61" width="30" height="30"/><rect class="cls-1" x="18.64" y="16.61" width="36" height="36"/><polygon class="cls-2" points="23.01 16.61 27.69 25.84 18.64 20.94 18.64 16.61 23.01 16.61"/><polygon class="cls-2" points="54.64 20.98 45.41 25.67 50.32 16.61 54.64 16.61 54.64 20.98"/><polygon class="cls-2" points="23.01 52.61 27.69 43.39 18.64 48.29 18.64 52.61 23.01 52.61"/><polygon class="cls-2" points="54.64 48.24 45.41 43.56 50.32 52.61 54.64 52.61 54.64 48.24"/></g></svg>