<svg xmlns="http://www.w3.org/2000/svg" viewBox="0 0 71.54 71.54"><defs><style>.cls-1{fill:none;stroke:#000;stroke-linejoin:round;}</style></defs><g id="Notes"><polygon class="cls-1" points="26.86 12.43 46.93 12.43 51.6 17.25 51.6 52.44 46.93 57.11 26.86 57.11 22.1 52.35 22.1 17.19 26.86 12.43"/><polygon class="cls-1" points="28.73 15.04 45.04 15.04 48.98 19.11 48.98 50.56 45.04 54.49 28.73 54.49 24.72 50.48 24.72 19.05 28.73 15.04"/><polygon class="cls-1" points="30.09 16.95 43.67 16.95 47.07 20.46 47.07 49.19 43.67 52.59 30.09 52.59 26.62 49.12 26.62 20.41 30.09 16.95"/><polygon class="cls-1" points="32.28 20.02 41.46 20.02 44 22.64 44 46.98 41.46 49.52 32.28 49.52 29.7 46.93 29.7 22.61 32.28 20.02"/><polygon class="cls-1" points="26.86 12.43 32.28 20.02 29.7 22.61 22.1 17.19 26.86 12.43"/><polygon class="cls-1" points="41.46 20.02 46.93 12.43 51.6 17.25 44 22.64 41.46 20.02"/><polygon class="cls-1" points="44 46.98 51.6 52.44 46.93 57.11 41.46 49.52 44 46.98"/><polygon class="cls-1" points="32.28 49.52 26.86 57.11 22.1 52.35 29.7 46.93 32.28 49.52"/></g></svg>