<svg xmlns="http://www.w3.org/2000/svg" viewBox="0 0 71.54 71.54"><defs><style>.cls-1,.cls-2{fill:none;stroke:#000;}.cls-1{stroke-miterlimit:10;}.cls-2{stroke-linecap:square;stroke-linejoin:round;}</style></defs><g id="Notes"><polygon class="cls-1" points="30.49 16.57 26.94 16.57 23.39 16.57 21.7 18.26 26.94 25.18 32.18 18.26 30.49 16.57"/><polygon class="cls-1" points="52.49 16.57 48.94 16.57 45.39 16.57 43.7 18.26 48.94 25.18 54.18 18.26 52.49 16.57"/><polyline class="cls-1" points="54.01 23.07 49.01 28.07 44.01 23.07"/><line class="cls-2" x1="49.01" y1="48.4" x2="49.01" y2="28.07"/><path class="cls-2" d="M46,46.57a3.5,3.5,0,1,1-3.5-3.5H49"/><path class="cls-2" d="M52,46.57a3.5,3.5,0,1,0,3.5-3.5H49"/><polyline class="cls-1" points="32.01 23.07 27.01 28.07 22.01 23.07"/><line class="cls-2" x1="27.01" y1="48.4" x2="27.01" y2="28.07"/><path class="cls-2" d="M24,46.57a3.5,3.5,0,1,1-3.5-3.5H27"/><path class="cls-2" d="M30,46.57a3.5,3.5,0,1,0,3.5-3.5H27"/></g></svg>