<svg xmlns="http://www.w3.org/2000/svg" viewBox="0 0 71.54 71.54"><defs><style>.cls-1,.cls-2{fill:none;stroke:#000;}.cls-1{stroke-miterlimit:10;}.cls-2{stroke-linecap:square;stroke-linejoin:round;}</style></defs><g id="Notes"><polyline class="cls-1" points="53.46 22.07 48.46 27.07 43.46 22.07"/><line class="cls-2" x1="48.46" y1="47.4" x2="48.46" y2="27.07"/><path class="cls-2" d="M45.46,45.57a3.5,3.5,0,1,1-3.5-3.5h6.5"/><path class="cls-2" d="M51.46,45.57a3.5,3.5,0,1,0,3.5-3.5h-6.5"/><polyline class="cls-1" points="31.46 22.07 26.46 27.07 21.46 22.07"/><line class="cls-2" x1="26.46" y1="47.4" x2="26.46" y2="27.07"/><path class="cls-2" d="M23.46,45.57a3.5,3.5,0,1,1-3.5-3.5h6.5"/><path class="cls-2" d="M29.46,45.57a3.5,3.5,0,1,0,3.5-3.5h-6.5"/></g></svg>