<svg xmlns="http://www.w3.org/2000/svg" viewBox="0 0 71.54 71.54"><defs><style>.cls-1{fill:none;stroke:#000;stroke-miterlimit:10;}</style></defs><g id="Notes"><path class="cls-1" d="M30.68,29.43l.54-.54a19.52,19.52,0,0,1-2.21-4h0a19.2,19.2,0,0,1,1.21,4.56Z"/><path class="cls-1" d="M49.91,37.39l.53.54a19,19,0,0,1,3.72-2.09,20.42,20.42,0,0,1-4.25,1.09Z"/><path class="cls-1" d="M41.94,56.62l-.54.54a19.27,19.27,0,0,1,2.21,4h0a19.31,19.31,0,0,1-1.2-4.56Z"/><path class="cls-1" d="M22.18,48.12a19.53,19.53,0,0,1-3.72,2.09,19.19,19.19,0,0,1,4.26-1.09v-.47Z"/><path class="cls-1" d="M49.91,48.65v.77a19.15,19.15,0,0,1,4.41,1.28h0a20.25,20.25,0,0,1-4.08-2.38Z"/><path class="cls-1" d="M54.47,35.73l-.31.11a19,19,0,0,0-3.72,2.09L55.54,43l-5.3,5.3a20.25,20.25,0,0,0,4.08,2.38,19.5,19.5,0,0,0,.15-15Z"/><path class="cls-1" d="M49.91,56.62H42.42a19.31,19.31,0,0,0,1.2,4.56A19.63,19.63,0,0,0,54.32,50.7a19.15,19.15,0,0,0-4.41-1.28Z"/><path class="cls-1" d="M42.7,29.43a19.54,19.54,0,0,1,1.15-4.11,19.92,19.92,0,0,1-2.24,3.78l.33.33Z"/><path class="cls-1" d="M36.31,23.8l5.3,5.3a19.92,19.92,0,0,0,2.24-3.78c0-.1.08-.21.13-.31a19.56,19.56,0,0,0-15-.14,19.52,19.52,0,0,0,2.21,4Z"/><path class="cls-1" d="M44.12,24.7c0,.11-.1.2-.14.31h0A2.88,2.88,0,0,0,44.12,24.7Z"/><path class="cls-1" d="M49.91,29.43v7.5a20.42,20.42,0,0,0,4.25-1.09l.3-.13A19.67,19.67,0,0,0,44,25c0,.11-.1.21-.14.31a19.54,19.54,0,0,0-1.15,4.11Z"/><path class="cls-1" d="M44,25c0,.1-.09.21-.13.31,0-.1.1-.2.14-.31Z"/><path class="cls-1" d="M54.79,35.59l-.33.12v0Z"/><path class="cls-1" d="M54.47,35.73v0l-.3.13Z"/><path class="cls-1" d="M29.92,56.62a19.45,19.45,0,0,1-1.15,4.1A19.84,19.84,0,0,1,31,57l-.33-.33Z"/><path class="cls-1" d="M36.31,62.25,31,57a19.84,19.84,0,0,0-2.24,3.77,3.05,3.05,0,0,1-.13.32,19.56,19.56,0,0,0,15,.14,19.27,19.27,0,0,0-2.21-4Z"/><path class="cls-1" d="M29.92,56.62h-7.2v-7.5a19.19,19.19,0,0,0-4.26,1.09l-.3.13A19.62,19.62,0,0,0,28.63,61c0-.1.1-.2.14-.31A19.45,19.45,0,0,0,29.92,56.62Z"/><path class="cls-1" d="M28.5,61.34c.05-.1.1-.2.14-.3h0Z"/><path class="cls-1" d="M28.63,61h0a3.05,3.05,0,0,0,.13-.32C28.73,60.83,28.67,60.93,28.63,61Z"/><path class="cls-1" d="M22.72,37.39v-.76a19.74,19.74,0,0,1-4.42-1.28h0a19.35,19.35,0,0,1,4.08,2.38Z"/><path class="cls-1" d="M18.3,35.35a19.74,19.74,0,0,0,4.42,1.28v-7.2h7.49A19.2,19.2,0,0,0,29,24.87,19.66,19.66,0,0,0,18.3,35.35Z"/><path class="cls-1" d="M22.18,48.12,17.08,43l5.3-5.29a19.35,19.35,0,0,0-4.08-2.38A19.44,19.44,0,0,0,16.73,43a19.65,19.65,0,0,0,1.42,7.3l.31-.11A19.53,19.53,0,0,0,22.18,48.12Z"/><path class="cls-1" d="M17.83,50.45l.33-.11v0Z"/><path class="cls-1" d="M18.15,50.32v0l.3-.13Z"/><path class="cls-1" d="M31.22,28.89l-.54.54h.94Z"/><path class="cls-1" d="M49.91,38.32c.17-.13.35-.27.53-.39l-.53-.54Z"/><path class="cls-1" d="M41.4,57.16l.54-.54H41Z"/><path class="cls-1" d="M22.72,47.72l-.54.4.54.53Z"/><path class="cls-1" d="M49.91,48.65l.33-.33-.33-.25Z"/><path class="cls-1" d="M41.94,29.43l-.33-.33-.24.33Z"/><path class="cls-1" d="M30.68,56.62,31,57l.24-.33Z"/><path class="cls-1" d="M22.72,37.39l-.34.34.34.24Z"/><path class="cls-1" d="M30.68,29.43h-.47l.06.41Z"/><path class="cls-1" d="M49.91,37.39v-.46L49.5,37Z"/><path class="cls-1" d="M41.94,56.62h.48c0-.14-.05-.28-.07-.41Z"/><path class="cls-1" d="M22.72,48.65v.47l.4-.06Z"/><path class="cls-1" d="M49.91,49.42v-.77l-.67.67Z"/><path class="cls-1" d="M42.7,29.43h-.76l.66.66C42.63,29.87,42.66,29.65,42.7,29.43Z"/><path class="cls-1" d="M30,56c0,.22-.06.44-.1.66h.76Z"/><path class="cls-1" d="M23.38,36.73l-.66-.1v.76Z"/><path class="cls-1" d="M29.81,49.42a19.49,19.49,0,0,1,6.42,2.72,19.28,19.28,0,0,1,6.48-2.61,19.25,19.25,0,0,1,2.72-6.43,19.54,19.54,0,0,1-2.62-6.47,19.31,19.31,0,0,1-6.42-2.73,19.54,19.54,0,0,1-6.47,2.62A19.57,19.57,0,0,1,27.19,43,19.46,19.46,0,0,1,29.81,49.42Z"/><path class="cls-1" d="M29.92,36.52a19.54,19.54,0,0,0,6.47-2.62,18.74,18.74,0,0,1-4.77-4.47h-.94l-.41.41A20,20,0,0,1,29.92,36.52Z"/><path class="cls-1" d="M42.81,36.63a19.54,19.54,0,0,0,2.62,6.47,19.73,19.73,0,0,1,2.44-3,18.88,18.88,0,0,1,2-1.77v-.93L49.5,37A19.82,19.82,0,0,1,42.81,36.63Z"/><path class="cls-1" d="M42.71,49.53a19.28,19.28,0,0,0-6.48,2.61,19.7,19.7,0,0,1,3,2.43,20,20,0,0,1,1.77,2h.94l.41-.41A19.74,19.74,0,0,1,42.71,49.53Z"/><path class="cls-1" d="M29.81,49.42A19.46,19.46,0,0,0,27.19,43a19.73,19.73,0,0,1-2.44,3,19.68,19.68,0,0,1-2,1.76v.93l.4.41A19.56,19.56,0,0,1,29.81,49.42Z"/><path class="cls-1" d="M45.43,43.1a19.25,19.25,0,0,0-2.72,6.43,18.84,18.84,0,0,1,6.53-.21l.67-.67v-.58A19.49,19.49,0,0,1,45.43,43.1Z"/><path class="cls-1" d="M42.41,32.78a18.32,18.32,0,0,1,.19-2.69l-.66-.66h-.57a19.68,19.68,0,0,1-5,4.47,19.31,19.31,0,0,0,6.42,2.73A19.56,19.56,0,0,1,42.41,32.78Z"/><path class="cls-1" d="M30.21,53.27A18.42,18.42,0,0,1,30,56l.66.66h.57a19.7,19.7,0,0,1,5-4.48,19.49,19.49,0,0,0-6.42-2.72A18.76,18.76,0,0,1,30.21,53.27Z"/><path class="cls-1" d="M27.19,43a19.57,19.57,0,0,0,2.73-6.43,20.33,20.33,0,0,1-3.84.4,21.86,21.86,0,0,1-2.7-.19l-.66.66V38A19.85,19.85,0,0,1,27.19,43Z"/></g></svg>