<svg xmlns="http://www.w3.org/2000/svg" viewBox="0 0 71.54 71.54"><defs><style>.cls-1{fill:none;stroke:#000;stroke-miterlimit:10;}</style></defs><g id="Notes"><rect class="cls-1" x="22.1" y="35.98" width="30" height="20"/><rect class="cls-1" x="22.1" y="29.98" width="30" height="6"/><rect class="cls-1" x="33.6" y="29.48" width="7" height="26.5"/><path class="cls-1" d="M33.1,22.48h0A3.5,3.5,0,0,1,36.6,26v3.5a0,0,0,0,1,0,0H33.1A3.5,3.5,0,0,1,29.6,26v0a3.5,3.5,0,0,1,3.5-3.5Z"/><path class="cls-1" d="M41.1,22.48h3.5a0,0,0,0,1,0,0V26a3.5,3.5,0,0,1-3.5,3.5h0A3.5,3.5,0,0,1,37.6,26v0a3.5,3.5,0,0,1,3.5-3.5Z" transform="translate(82.19 51.96) rotate(-180)"/></g></svg>