<svg xmlns="http://www.w3.org/2000/svg" viewBox="0 0 71.54 71.54"><defs><style>.cls-1{fill:none;stroke:#000;stroke-miterlimit:10;}</style></defs><g id="Notes"><path class="cls-1" d="M54.77,47.88c-.2-.33-.73-.53-1.53-.93s-4.74-2.34-5.48-2.61-1.26-.4-1.8.4-2.07,2.61-2.54,3.14-.93.6-1.73.2a21.78,21.78,0,0,1-6.44-4,24.48,24.48,0,0,1-4.46-5.55c-.46-.8-.05-1.24.35-1.64s.8-.93,1.2-1.4a5.21,5.21,0,0,0,.81-1.33,1.48,1.48,0,0,0-.06-1.41c-.21-.4-1.81-4.34-2.47-5.94s-1.32-1.35-1.81-1.38l-1.53,0a2.91,2.91,0,0,0-2.14,1,9,9,0,0,0-2.8,6.68c0,3.94,2.87,7.75,3.27,8.28S31.26,50,39.29,53.5a47.48,47.48,0,0,0,4.56,1.68,11,11,0,0,0,5,.32c1.54-.23,4.74-1.94,5.41-3.81A6.74,6.74,0,0,0,54.77,47.88Z"/></g></svg>