<svg xmlns="http://www.w3.org/2000/svg" viewBox="0 0 71.54 71.54"><defs><style>.cls-1{fill:none;stroke:#000;stroke-miterlimit:10;}</style></defs><g id="Notes"><path class="cls-1" d="M29.88,46.7a9.86,9.86,0,0,0-2.77-7.44,9.55,9.55,0,0,0-2.21-1.69V29.7h-9v7.87a9.4,9.4,0,0,0-2.22,1.69,10,10,0,0,0,0,13.81,9.31,9.31,0,0,0,10.91,1.87c.17-.09.41-.46.55-.58"/><line class="cls-1" x1="29.43" y1="43.28" x2="11.36" y2="43.28"/><line class="cls-1" x1="45.57" y1="49.28" x2="28.5" y2="49.28"/><polyline class="cls-1" points="46.24 50.19 46.24 29.7 65.05 29.7 63.05 32.65 63.05 54.94 49.29 54.94"/><line class="cls-1" x1="63.3" y1="38.94" x2="46.24" y2="38.94"/><path class="cls-1" d="M51.68,58.77,43,44.94h0a4.75,4.75,0,0,1-.5-2.12V22.24l2-3.3h-15l2,3.3V42.82a4.89,4.89,0,0,1-.5,2.12h0L22.39,58.77a1.42,1.42,0,0,0,1.2,2.17H50.48A1.42,1.42,0,0,0,51.68,58.77Z"/></g></svg>