<svg xmlns="http://www.w3.org/2000/svg" viewBox="0 0 143.09 71.54"><defs><style>.cls-1{fill:none;stroke:#000;stroke-linecap:round;stroke-linejoin:round;}</style></defs><g id="Notes"><path class="cls-1" d="M101.25,41.64H41.91a5.94,5.94,0,0,1-5.94-6h0a5.94,5.94,0,0,1,5.94-5.95h59.34a5.93,5.93,0,0,1,5.93,5.95h0A5.93,5.93,0,0,1,101.25,41.64Z"/><path class="cls-1" d="M103.12,39.64H39.91a4,4,0,0,1-3.94-4h0a4,4,0,0,1,3.94-3.95h63.21a3.94,3.94,0,0,1,3.94,3.95h0A3.94,3.94,0,0,1,103.12,39.64Z"/><circle class="cls-1" cx="39.81" cy="35.69" r="3.96"/><circle class="cls-1" cx="47.72" cy="35.69" r="3.96"/><circle class="cls-1" cx="55.63" cy="35.69" r="3.96"/><circle class="cls-1" cx="63.54" cy="35.69" r="3.96"/><circle class="cls-1" cx="71.45" cy="35.69" r="3.96"/><circle class="cls-1" cx="79.36" cy="35.69" r="3.96"/><circle class="cls-1" cx="87.28" cy="35.69" r="3.96"/><circle class="cls-1" cx="95.19" cy="35.69" r="3.96"/><circle class="cls-1" cx="103.1" cy="35.69" r="3.96"/></g></svg>