<svg xmlns="http://www.w3.org/2000/svg" viewBox="0 0 143.09 71.54"><defs><style>.cls-1{fill:none;stroke:#000;stroke-linecap:round;stroke-linejoin:round;}</style></defs><g id="Notes"><path class="cls-1" d="M38.41,29.54a14,14,0,0,1,5.4,2.76,14,14,0,0,1,17.76-.09,14.05,14.05,0,0,1,17.62,0,14,14,0,0,1,17.71.12,14,14,0,0,1,5.46-2.78"/><path class="cls-1" d="M102.36,40.51a13.87,13.87,0,0,1-5.46-2.77,14,14,0,0,1-17.71.12,14.05,14.05,0,0,1-17.62,0,14,14,0,0,1-17.76-.09,14,14,0,0,1-5.4,2.76"/><path class="cls-1" d="M61.57,32.21a14,14,0,0,0-17.76.09q.51.42,1,.9L46.62,35"/><path class="cls-1" d="M43.81,37.74a14,14,0,0,0,17.76.09,14.53,14.53,0,0,1-1.09-1l-1.79-1.79a8.46,8.46,0,0,1-11.94,0,8.46,8.46,0,0,1,11.94,0"/><path class="cls-1" d="M79.19,32.18a14.05,14.05,0,0,0-17.62,0,14.53,14.53,0,0,1,1.09,1L64.45,35a8.47,8.47,0,0,1,11.85,0"/><path class="cls-1" d="M61.57,37.83a14.05,14.05,0,0,0,17.62,0,12.21,12.21,0,0,1-1.14-1L76.3,35.1a8.46,8.46,0,0,1-11.85-.05"/><path class="cls-1" d="M96.9,32.3a14,14,0,0,0-17.71-.12,12,12,0,0,1,1.13,1l1.75,1.74A8.47,8.47,0,0,1,94,35h0a8.47,8.47,0,0,1-11.89.08"/><path class="cls-1" d="M79.19,37.86a14,14,0,0,0,17.71-.12q-.51-.42-1-.9L94.09,35"/><path class="cls-1" d="M82.07,35.1,82,35l.09-.08L80.32,33.2a12,12,0,0,0-1.13-1"/><path class="cls-1" d="M76.3,34.94l.09.08-.09.08,1.75,1.74a12.21,12.21,0,0,0,1.14,1"/><path class="cls-1" d="M96.9,37.74a13.87,13.87,0,0,0,5.46,2.77,5.94,5.94,0,0,0,3.11-3A8.42,8.42,0,0,1,99.85,35a8.37,8.37,0,0,1,5.62-2.46,6,6,0,0,0-3.11-3A14,14,0,0,0,96.9,32.3q.51.42,1,.9L99.72,35"/><path class="cls-1" d="M99.72,35,97.89,33.2q-.48-.48-1-.9"/><path class="cls-1" d="M94.09,35l1.82,1.82q.48.48,1,.9"/><path class="cls-1" d="M43.81,32.3a14,14,0,0,0-5.4-2.76,5.94,5.94,0,0,0-3.08,3A8.41,8.41,0,0,1,40.86,35h0a8.41,8.41,0,0,1-5.53,2.46,5.94,5.94,0,0,0,3.08,3,14,14,0,0,0,5.4-2.76q-.51-.42-1-.9L41,35"/><path class="cls-1" d="M58.69,35.05l0,0,0,0,0,0Z"/><path class="cls-1" d="M64.45,35l0,0,0,0,0,0Z"/><path class="cls-1" d="M76.3,35.1l.09-.08-.09-.08-.07.08Z"/><path class="cls-1" d="M82.15,35l-.08-.08L82,35"/></g></svg>