<svg xmlns="http://www.w3.org/2000/svg" viewBox="0 0 24 24"><defs><style>.cls-1{fill:none;}</style></defs><title>Asset 6</title><g id="Layer_2" data-name="Layer 2"><g id="Layer_1-2" data-name="Layer 1"><rect class="cls-1" width="24" height="24"/><path d="M13.52,2.25l.55.55L12,5.41,9.93,2.8l.55-.55h3m.21-.5H10.27l-1,1L12,6.22l2.74-3.45-1-1Z"/><path d="M12,22.25A8.28,8.28,0,0,1,9.31,6.13L8.56,5.2l.78-.63,1.72,2.14-.77.18a7.3,7.3,0,1,0,3.42,0l-.77-.18,1.72-2.14.78.63-.75.93A8.28,8.28,0,0,1,12,22.25Z"/></g></g></svg>