<svg id="Layer_1" data-name="Layer 1" xmlns="http://www.w3.org/2000/svg" viewBox="0 0 483.29 163.62"><defs><style>.cls-1{fill:#1d1d1b;}</style></defs><title>logo</title><path d="M593.26,227a.49.49,0,0,0-.14-.11l-9.35-4.32a.37.37,0,0,0-.18-.08l-7-1h-.13l-7,1.08a.27.27,0,0,0-.12,0h0l-9.3,4.32a.38.38,0,0,0-.14.11l-5,5.84a.42.42,0,0,0,0,.52l0,0h0l2.59,3.26h0l.15.14,18.72,15.86a.41.41,0,0,0,.27.1.42.42,0,0,0,.28-.1l18.75-15.9.12-.1h0l2.59-3.26h0l0,0a.44.44,0,0,0,0-.51Zm-.58.62,4,4.58-5.79-2.05-3.87-4.8-.82-.76Zm-3.37,2-4.92-1.73,2-1.81Zm-19.59-6.26,6.79-1,6.84,1,2.5,2.13-2.39,2.13-6.78,1-6.85-1-2.5-2.14Zm6,16.44-9-1.92,5.7-2.69Zm-5.36-11.25,5.58.82-3.26,4.45Zm5.57,12.16-3.23,4-5.79-5.95Zm-2.82-6.05,3.48-4.76,3.48,4.76-3.48,4.92Zm4.36,5.14,3.26-4.61,5.7,2.69Zm8.8-1-5.78,5.95-3.23-4Zm-5.77-5-3.23-4.43,5.57-.86Zm-11.67-5.95-5,1.75,2.89-3.52Zm-8.33-.24,6.65-3.09s-.76.68-.77.7h0l-4,4.92-5.8,2.05Zm-4.61,5.7,5.42-1.91-3.53,4.3Zm6.57-2,2.44,6.14-6.36-1.36Zm-3.13,5.81,5.82,1.25.14,3.8Zm3.81-6.38,6.3-2.22,2.6,5.9-6.26,3Zm3,12.17-.15-3.88,6.38,6.55,2.72,4.91Zm10.43,8.52-3.36-6.06,3.36-4.17,3.36,4.17ZM587,242.94l-8.95,7.58,2.72-4.91,6.37-6.55Zm-5.89-8.49,2.61-5.9,6.29,2.22-2.63,6.64Zm6.76,7.75.14-3.8,5.82-1.25Zm.38-4.72,2.44-6.14,3.92,4.78Zm7.12-1.76-3.52-4.3,5.42,1.91Zm0,0" transform="translate(-167.57 -221.02)"/><path class="cls-1" d="M167.57,326.17h16.65V223.57H167.57v-2.1h27.9c1.4,0,2.8,0,4.2-.07s2.8-.13,4.2-.23,2.8,0,4.2-.07,2.8-.08,4.2-.08q4.5,0,8,.15c2.34.1,4.55.28,6.6.53a51.52,51.52,0,0,1,5.85,1.05q2.77.67,5.92,1.72a54.14,54.14,0,0,1,15.83,8,45.61,45.61,0,0,1,10.95,11.62,48.9,48.9,0,0,1,6.3,14.4,64.82,64.82,0,0,1,2,16.35,61,61,0,0,1-2.4,17.78,49.94,49.94,0,0,1-6.6,14A47.94,47.94,0,0,1,255,317.1a51.84,51.84,0,0,1-12.08,7.12,46.4,46.4,0,0,1-6.82,2.55,48.55,48.55,0,0,1-6.6,1.35q-3.37.45-7.43.6t-9.3.15c-1.5,0-3.1,0-4.8-.07s-3.4-.13-5.1-.23-3.37-.17-5-.22-3.23-.08-4.73-.08h-25.5Zm31.65,0q2.55.3,5.93.45t7.42.15a97.61,97.61,0,0,0,10.13-.52,38.51,38.51,0,0,0,9.6-2.25,30.72,30.72,0,0,0,8.55-4.95,32.06,32.06,0,0,0,7.12-8.48A56.54,56.54,0,0,0,254.65,294a85.84,85.84,0,0,0,1.87-18.53A95.12,95.12,0,0,0,254.27,254a43.07,43.07,0,0,0-7.42-16.5,34,34,0,0,0-13.73-10.58q-8.55-3.75-21.15-3.75c-2.5,0-4.78,0-6.82.15l-5.93.3Z" transform="translate(-167.57 -221.02)"/><path class="cls-1" d="M302.72,291.07c0,1,0,2-.08,3.08s-.07,2.37-.07,4a93.82,93.82,0,0,0,.6,10.35,31.09,31.09,0,0,0,2.62,9.75,18.17,18.17,0,0,0,6,7.2q4,2.85,10.58,2.85a26.27,26.27,0,0,0,10.87-1.95A20,20,0,0,0,340,321.6a20.5,20.5,0,0,0,3.68-5.63q1.2-2.85,1.8-4.65l2.25.45A43.34,43.34,0,0,1,346,316.5a21.73,21.73,0,0,1-4.05,6.15,24.56,24.56,0,0,1-7.5,5.4q-4.72,2.32-12.22,2.32a39.1,39.1,0,0,1-13.88-2.4,31.69,31.69,0,0,1-11-6.9,31.16,31.16,0,0,1-7.2-10.72,36.31,36.31,0,0,1-2.55-13.88,32.67,32.67,0,0,1,2.62-12.82,36,36,0,0,1,17.93-18.75,29.72,29.72,0,0,1,22.2-1.43,26.49,26.49,0,0,1,8.92,4.88,26.77,26.77,0,0,1,6.9,8.92,30.7,30.7,0,0,1,2.78,13.8Zm30.9-2.1a27.69,27.69,0,0,0,.3-3.9v-3.75a30.23,30.23,0,0,0-1-8.4,13.66,13.66,0,0,0-2.7-5.25,9.53,9.53,0,0,0-4.2-2.77,16.71,16.71,0,0,0-5.32-.83,15.83,15.83,0,0,0-8.4,2,14.9,14.9,0,0,0-5.25,5.47,28.21,28.21,0,0,0-2.93,7.95,62.43,62.43,0,0,0-1.27,9.45Z" transform="translate(-167.57 -221.02)"/><path class="cls-1" d="M418.22,311.77a43.34,43.34,0,0,1-1.73,4.73,21.73,21.73,0,0,1-4.05,6.15,24.56,24.56,0,0,1-7.5,5.4q-4.72,2.32-12.22,2.32a42.13,42.13,0,0,1-11.85-1.8,33.41,33.41,0,0,1-11.25-5.77,30,30,0,0,1-8.33-10.43q-3.23-6.45-3.22-15.9a33.48,33.48,0,0,1,2.77-13.65,35,35,0,0,1,7.5-10.95,34.21,34.21,0,0,1,11.1-7.27A35.33,35.33,0,0,1,393,262a37.36,37.36,0,0,1,8.32,1,28.1,28.1,0,0,1,7.8,3A18.44,18.44,0,0,1,415,271.2a13.1,13.1,0,0,1,2.33,7.87,7,7,0,0,1-2,5.18,7.8,7.8,0,0,1-5.77,2,11.07,11.07,0,0,1-4.88-1.12,3.92,3.92,0,0,1-2.32-3.83,15.94,15.94,0,0,1,1.05-5.1,15.68,15.68,0,0,0,1.05-5A5.82,5.82,0,0,0,401,266a16.39,16.39,0,0,0-8-1.88,30,30,0,0,0-6.83.83,12.43,12.43,0,0,0-6.45,4.12q-2.92,3.3-4.8,9.9t-1.87,18a84.91,84.91,0,0,0,.82,12.15,32,32,0,0,0,3,10,17.09,17.09,0,0,0,6,6.75q3.83,2.47,10,2.47a26.27,26.27,0,0,0,10.87-1.95,20,20,0,0,0,6.75-4.72,20.5,20.5,0,0,0,3.68-5.63q1.2-2.85,1.8-4.65Z" transform="translate(-167.57 -221.02)"/><path class="cls-1" d="M425.72,296.17a29.52,29.52,0,0,1,3.22-13.65,38,38,0,0,1,19.5-18,30.58,30.58,0,0,1,24.45,0,38,38,0,0,1,19.5,18,29.52,29.52,0,0,1,3.23,13.65,30.21,30.21,0,0,1-3,13.28,37.26,37.26,0,0,1-19.05,18.22,32.17,32.17,0,0,1-25.8,0,37.16,37.16,0,0,1-19-18.22A30.21,30.21,0,0,1,425.72,296.17Zm15,0q0,10.65,1.65,16.95a26.1,26.1,0,0,0,4.35,9.68,12.52,12.52,0,0,0,6.3,4.42,28.39,28.39,0,0,0,15.3,0,12.52,12.52,0,0,0,6.3-4.42,26.1,26.1,0,0,0,4.35-9.68q1.65-6.3,1.65-16.95a79.49,79.49,0,0,0-1.2-15.07,28.26,28.26,0,0,0-3.68-9.9,14.18,14.18,0,0,0-6.22-5.48,24.56,24.56,0,0,0-17.7,0,14.2,14.2,0,0,0-6.23,5.48,28.26,28.26,0,0,0-3.67,9.9A79.49,79.49,0,0,0,440.72,296.17Z" transform="translate(-167.57 -221.02)"/><path class="cls-1" d="M501.92,326.17h11.55V266H501.92v-2.1h24.15v15.15h.3a30.54,30.54,0,0,1,2-5.1,22.24,22.24,0,0,1,3.75-5.47,21.35,21.35,0,0,1,5.77-4.43,17.19,17.19,0,0,1,8.18-1.8,14.77,14.77,0,0,1,6,1.13,13,13,0,0,1,4.2,2.85,10.46,10.46,0,0,1,2.4,4,14.16,14.16,0,0,1,.75,4.5q0,4.95-2.25,6.6a8.64,8.64,0,0,1-5.25,1.65q-6.6,0-6.6-4.2a6.47,6.47,0,0,1,.3-2.17c.2-.55.42-1.1.67-1.65a13.58,13.58,0,0,0,.68-1.88,11.52,11.52,0,0,0,.3-3q0-4.8-5.25-4.8a9.3,9.3,0,0,0-5.1,1.8,18.82,18.82,0,0,0-5,5.25,33,33,0,0,0-3.9,8.33,36.31,36.31,0,0,0-1.57,11.17v34.35h13v2.1h-37.5Z" transform="translate(-167.57 -221.02)"/><polygon class="cls-1" points="391.05 105.15 402.6 105.15 402.6 45 391.05 45 391.05 42.9 415.5 42.9 415.5 105.15 427.05 105.15 427.05 107.25 391.05 107.25 391.05 105.15"/><path class="cls-1" d="M602.72,307.27h1.65a53.44,53.44,0,0,0,2.7,7.28,25.79,25.79,0,0,0,4.42,6.75,21.82,21.82,0,0,0,6.83,5,22.28,22.28,0,0,0,9.75,1.95,13.54,13.54,0,0,0,8.55-2.92c2.49-2,3.75-5.13,3.75-9.53q0-5.7-2.93-8a22.88,22.88,0,0,0-6.82-3.68l-11.7-4.05q-2.25-.75-4.88-1.87a17.65,17.65,0,0,1-4.87-3.15,15.39,15.39,0,0,1-3.68-5.18,19.77,19.77,0,0,1-1.42-8.1,18.34,18.34,0,0,1,1.65-7.8A19.89,19.89,0,0,1,617,263.47a24.22,24.22,0,0,1,8.63-1.5,21.88,21.88,0,0,1,5.32.53c1.35.35,2.53.7,3.53,1.05s1.89.7,2.7,1.05a7,7,0,0,0,2.85.52,2.63,2.63,0,0,0,2.4-1.2h1.65V281h-1.65a64.39,64.39,0,0,0-2.4-6.37,25.53,25.53,0,0,0-3.23-5.48,13.08,13.08,0,0,0-4.65-3.75,14.77,14.77,0,0,0-6.52-1.35q-7.2,0-11.18,3.23a10.52,10.52,0,0,0-4,8.62,8.46,8.46,0,0,0,3.37,7.28,35.29,35.29,0,0,0,10,4.57l11,3.6a31.57,31.57,0,0,1,11.55,6.6,14.47,14.47,0,0,1,4.5,11.1,21.06,21.06,0,0,1-1.58,7.95,19.31,19.31,0,0,1-4.65,6.83,23.68,23.68,0,0,1-7.5,4.72,26.7,26.7,0,0,1-10.12,1.8,25.68,25.68,0,0,1-6.08-.67q-2.78-.68-5.1-1.43c-1.55-.5-3-1-4.27-1.42a11.13,11.13,0,0,0-3.6-.68,3.49,3.49,0,0,0-2.4.68,6,6,0,0,0-1.2,1.42h-1.65Z" transform="translate(-167.57 -221.02)"/><path class="cls-1" d="M270.71,371.14c0,7.36-4.81,13.13-12.28,13.13h-7.92V358h7.92C265.9,358,270.71,363.77,270.71,371.14Zm-1.78,0c0-6.63-4.29-11.44-10.5-11.44h-6.15v22.87h6.15C264.64,382.57,268.93,377.76,268.93,371.14Z" transform="translate(-167.57 -221.02)"/><path class="cls-1" d="M294.87,358h1.78v26.27h-1.78Z" transform="translate(-167.57 -221.02)"/><path class="cls-1" d="M337.2,377.09h-12l-2.59,7.18h-1.85L330.21,358h2l9.47,26.27h-1.85Zm-.59-1.7-5.4-15-5.41,15Z" transform="translate(-167.57 -221.02)"/><path class="cls-1" d="M391.44,358v26.27h-1.81v-23l-10.47,17.17h-1.11l-10.47-17.17v23H365.8V358h1.78l11,18.06,11-18.06Z" transform="translate(-167.57 -221.02)"/><path class="cls-1" d="M416.3,371.14a13.16,13.16,0,1,1,13.14,13.5A13.23,13.23,0,0,1,416.3,371.14Zm24.5,0a11.37,11.37,0,1,0-11.36,11.8A11.58,11.58,0,0,0,440.8,371.14Z" transform="translate(-167.57 -221.02)"/><path class="cls-1" d="M487.23,358v26.27h-1.77L469,361v23.24h-1.77V358H469l16.47,23.24V358Z" transform="translate(-167.57 -221.02)"/><path class="cls-1" d="M532.49,371.14c0,7.36-4.81,13.13-12.29,13.13h-7.92V358h7.92C527.68,358,532.49,363.77,532.49,371.14Zm-1.78,0c0-6.63-4.29-11.44-10.51-11.44h-6.14v22.87h6.14C526.42,382.57,530.71,377.76,530.71,371.14Z" transform="translate(-167.57 -221.02)"/><path class="cls-1" d="M557.13,377.61c.33,3.63,3.29,5.33,6.21,5.33,3.67,0,6-1.93,6-4.74,0-3.4-3-5.1-6.33-6.66-3.92-1.92-7.06-3.44-7.06-7.73,0-3.63,3.21-6.18,7.17-6.18a6.88,6.88,0,0,1,7,6.36h-1.78a5.13,5.13,0,0,0-5.18-4.66c-3,0-5.4,1.85-5.4,4.52,0,3.47,2.7,4.58,5.77,6,4.26,2,7.63,4.14,7.63,8.36,0,3.88-3.19,6.4-7.74,6.4-4.07,0-7.69-2.66-8-7Z" transform="translate(-167.57 -221.02)"/></svg>