<svg xmlns="http://www.w3.org/2000/svg" viewBox="0 0 71.54 71.54"><defs><style>.cls-1{fill:none;stroke:#000;stroke-miterlimit:10;}</style></defs><g id="Notes"><path class="cls-1" d="M22.34,58.2h0a8.08,8.08,0,0,1-.86-10.39l6.57-8.24,6.58,8.24a8.09,8.09,0,0,1-.87,10.39h0A8.08,8.08,0,0,1,22.34,58.2Z"/><path class="cls-1" d="M26.07,20a2.78,2.78,0,0,0-.68,1.82,2.84,2.84,0,0,0,5.55.85"/><path class="cls-1" d="M28.24,18.92a2.81,2.81,0,0,0-2.17,1"/><path class="cls-1" d="M28.24,18.92a2.85,2.85,0,0,1,2.85,2.85,2.66,2.66,0,0,1-.15.85"/><line class="cls-1" x1="28.05" y1="39.57" x2="28.05" y2="24.61"/><path class="cls-1" d="M41.34,58.2h0a8.08,8.08,0,0,1-.86-10.39l6.57-8.24,6.58,8.24a8.09,8.09,0,0,1-.87,10.39h0A8.08,8.08,0,0,1,41.34,58.2Z"/><path class="cls-1" d="M45.07,20a2.78,2.78,0,0,0-.68,1.82,2.84,2.84,0,0,0,5.55.85"/><path class="cls-1" d="M47.24,18.92a2.81,2.81,0,0,0-2.17,1"/><path class="cls-1" d="M47.24,18.92a2.85,2.85,0,0,1,2.85,2.85,2.66,2.66,0,0,1-.15.85"/><line class="cls-1" x1="47.05" y1="39.57" x2="47.05" y2="24.61"/></g></svg>