<svg xmlns="http://www.w3.org/2000/svg" viewBox="0 0 71.54 71.54"><defs><style>.cls-1{fill:none;stroke:#000;stroke-miterlimit:10;}</style></defs><g id="Notes"><path class="cls-1" d="M24.8,46.1a2.78,2.78,0,0,0-.68,1.82,2.85,2.85,0,0,0,5.56.85"/><path class="cls-1" d="M38.6,49a3.94,3.94,0,0,1-7.86,0"/><path class="cls-1" d="M44.46,46a2.84,2.84,0,0,1-2.1,4.76,2.83,2.83,0,0,1-2.72-2.06"/><path class="cls-1" d="M39.64,48.7c-.34.12-.69.23-1,.32"/><path class="cls-1" d="M44.46,46a15.48,15.48,0,0,0-.89-24.53"/><path class="cls-1" d="M27,45.07a2.81,2.81,0,0,0-2.17,1"/><path class="cls-1" d="M25.57,21.47A15.48,15.48,0,0,0,24.8,46.1"/><path class="cls-1" d="M29.68,48.77c.34.11.7.21,1.06.3"/><path class="cls-1" d="M38.6,49c0-.07,0-.14,0-.21a4,4,0,1,0-7.91,0,2.3,2.3,0,0,0,0,.26"/><path class="cls-1" d="M27,45.07a2.85,2.85,0,0,1,2.85,2.85,3,3,0,0,1-.14.85"/><path class="cls-1" d="M44.46,46a2.85,2.85,0,0,0-5,1.92,2.55,2.55,0,0,0,.13.78"/></g></svg>